<?xml version="1.0" encoding="UTF-8" standalone="no"?>
<!DOCTYPE svg PUBLIC "-//W3C//DTD SVG 20010904//EN"
              "http://www.w3.org/TR/2001/REC-SVG-20010904/DTD/svg10.dtd">

<svg xmlns="http://www.w3.org/2000/svg"
     width="17.9167in" height="6.94444in"
     viewBox="0 0 1290 500">
  <path id="Selection"
        fill="none" stroke="black" stroke-width="1"
        d="M 1069.00,20.04
           C 1069.00,20.04 1067.91,40.00 1067.91,40.00
             1067.91,40.00 1067.00,52.00 1067.00,52.00
             1067.00,52.00 1066.00,72.00 1066.00,72.00
             1066.00,72.00 1065.00,90.00 1065.00,90.00
             1065.00,90.00 1064.00,115.00 1064.00,115.00
             1064.00,115.00 1122.00,126.00 1122.00,126.00
             1122.00,126.00 1126.09,80.00 1126.09,80.00
             1126.09,80.00 1129.17,43.00 1129.17,43.00
             1129.17,43.00 1131.00,22.00 1131.00,22.00
             1131.00,22.00 1113.00,21.00 1113.00,21.00
             1113.00,21.00 1096.00,21.00 1096.00,21.00
             1096.00,21.00 1085.00,20.04 1085.00,20.04
             1085.00,20.04 1069.00,20.04 1069.00,20.04 Z" />
</svg>
