<?xml version="1.0" encoding="UTF-8" standalone="no"?>
<!DOCTYPE svg PUBLIC "-//W3C//DTD SVG 20010904//EN"
              "http://www.w3.org/TR/2001/REC-SVG-20010904/DTD/svg10.dtd">

<svg xmlns="http://www.w3.org/2000/svg"
     width="17.9167in" height="6.94444in"
     viewBox="0 0 1290 500">
  <path id="Selection"
        fill="none" stroke="black" stroke-width="1"
        d="M 1118.00,32.00
           C 1118.00,32.00 1126.00,42.00 1126.00,42.00
             1126.00,42.00 1115.00,36.00 1115.00,36.00
             1116.87,42.24 1122.59,44.96 1128.00,48.00
             1128.00,48.00 1125.00,44.00 1125.00,44.00
             1125.00,44.00 1128.00,38.00 1128.00,38.00
             1128.00,38.00 1118.00,32.00 1118.00,32.00 Z
           M 1111.00,42.00
           C 1111.00,42.00 1120.00,50.00 1120.00,50.00
             1120.00,50.00 1108.00,46.00 1108.00,46.00
             1111.21,49.79 1114.44,52.07 1119.00,54.00
             1119.00,54.00 1122.00,50.00 1122.00,50.00
             1120.36,44.68 1116.68,41.58 1111.00,42.00 Z
           M 1105.00,50.00
           C 1105.00,50.00 1109.00,54.00 1109.00,54.00
             1109.00,54.00 1110.00,51.00 1110.00,51.00
             1110.00,51.00 1105.00,50.00 1105.00,50.00 Z
           M 1102.00,54.00
           C 1102.00,54.00 1102.00,56.00 1102.00,56.00
             1106.14,58.40 1108.08,61.00 1113.00,61.00
             1109.92,57.04 1107.26,54.00 1102.00,54.00 Z
           M 1096.00,54.00
           C 1097.03,60.18 1103.86,65.13 1110.00,65.00
             1110.00,65.00 1096.00,54.00 1096.00,54.00 Z
           M 1099.00,70.00
           C 1099.00,70.00 1099.00,68.00 1099.00,68.00
             1099.00,68.00 1095.00,65.00 1095.00,65.00
             1095.00,65.00 1099.00,66.00 1099.00,66.00
             1099.00,66.00 1099.00,62.00 1099.00,62.00
             1093.17,64.94 1092.13,69.93 1099.00,70.00 Z
           M 1102.00,65.00
           C 1102.00,65.00 1100.00,67.00 1100.00,67.00
             1100.00,67.00 1100.00,68.00 1100.00,68.00
             1100.00,68.00 1104.00,72.00 1104.00,72.00
             1104.00,72.00 1100.00,71.00 1100.00,71.00
             1100.00,71.00 1100.00,74.00 1100.00,74.00
             1104.37,72.68 1104.81,71.94 1107.00,68.00
             1107.00,68.00 1102.00,65.00 1102.00,65.00 Z
           M 1087.00,67.00
           C 1087.00,67.00 1086.00,70.00 1086.00,70.00
             1086.00,70.00 1100.00,78.00 1100.00,78.00
             1097.25,72.97 1092.01,69.58 1087.00,67.00 Z
           M 1088.00,74.00
           C 1088.00,74.00 1086.00,76.00 1086.00,76.00
             1086.00,76.00 1086.00,77.00 1086.00,77.00
             1086.00,77.00 1097.00,83.00 1097.00,83.00
             1095.36,77.71 1092.70,76.43 1088.00,74.00 Z
           M 1085.00,78.00
           C 1085.06,83.83 1091.01,88.52 1096.00,84.00
             1096.00,84.00 1085.00,78.00 1085.00,78.00 Z
           M 1081.00,83.00
           C 1081.00,83.00 1078.00,90.00 1078.00,90.00
             1078.00,90.00 1087.00,96.00 1087.00,96.00
             1092.05,88.39 1089.30,85.76 1081.00,83.00 Z
           M 1083.00,86.00
           C 1083.00,86.00 1083.00,87.00 1083.00,87.00
             1083.00,87.00 1082.00,86.00 1082.00,86.00
             1082.00,86.00 1083.00,86.00 1083.00,86.00 Z
           M 1081.00,87.00
           C 1081.00,87.00 1081.00,88.00 1081.00,88.00
             1081.00,88.00 1080.00,87.00 1080.00,87.00
             1080.00,87.00 1081.00,87.00 1081.00,87.00 Z
           M 1082.00,88.00
           C 1082.00,88.00 1082.00,89.00 1082.00,89.00
             1082.00,89.00 1081.00,88.00 1081.00,88.00
             1081.00,88.00 1082.00,88.00 1082.00,88.00 Z
           M 1086.00,88.00
           C 1086.00,88.00 1086.00,89.00 1086.00,89.00
             1086.00,89.00 1085.00,88.00 1085.00,88.00
             1085.00,88.00 1086.00,88.00 1086.00,88.00 Z
           M 1087.00,89.00
           C 1087.00,89.00 1087.00,90.00 1087.00,90.00
             1087.00,90.00 1086.00,89.00 1086.00,89.00
             1086.00,89.00 1087.00,89.00 1087.00,89.00 Z
           M 1085.00,90.00
           C 1085.00,90.00 1085.00,91.00 1085.00,91.00
             1085.00,91.00 1084.00,90.00 1084.00,90.00
             1084.00,90.00 1085.00,90.00 1085.00,90.00 Z
           M 1070.00,90.00
           C 1070.00,90.00 1076.00,96.00 1076.00,96.00
             1075.58,90.94 1075.06,90.42 1070.00,90.00 Z
           M 1067.00,94.00
           C 1067.00,94.00 1081.00,104.00 1081.00,104.00
             1078.22,99.10 1072.38,95.44 1067.00,94.00 Z
           M 1077.00,96.00
           C 1077.00,96.00 1084.00,101.00 1084.00,101.00
             1083.17,96.03 1082.03,94.96 1077.00,96.00 Z
           M 1065.00,96.00
           C 1065.96,101.76 1073.27,107.21 1079.00,107.00
             1079.00,107.00 1065.00,96.00 1065.00,96.00 Z" />
</svg>
