<?xml version="1.0" encoding="UTF-8" standalone="no"?>
<!DOCTYPE svg PUBLIC "-//W3C//DTD SVG 20010904//EN"
              "http://www.w3.org/TR/2001/REC-SVG-20010904/DTD/svg10.dtd">

<svg xmlns="http://www.w3.org/2000/svg"
     width="17.9167in" height="6.94444in"
     viewBox="0 0 1290 500">
  <path id="Selection #1"
        fill="none" stroke="black" stroke-width="1"
        d="M 489.00,94.00
           C 484.84,99.20 483.03,98.75 478.00,102.22
             476.48,103.27 474.41,104.85 473.14,106.17
             472.00,107.36 471.11,108.47 470.44,110.00
             469.73,111.77 469.52,114.01 470.44,115.77
             473.18,121.30 482.55,118.15 487.00,117.02
             488.60,116.61 490.33,116.12 492.00,116.41
             494.35,116.81 496.70,118.59 497.26,121.01
             498.13,124.83 493.48,128.28 489.98,126.50
             487.55,125.26 487.40,123.37 487.00,121.00
             487.00,121.00 480.00,129.00 480.00,129.00
             483.23,130.94 486.02,133.11 490.00,132.75
             497.24,132.09 509.05,123.19 503.77,115.19
             500.38,110.04 493.36,110.61 488.00,111.38
             485.57,111.81 481.48,113.12 479.42,111.38
             476.34,108.61 480.30,104.69 482.83,103.46
             486.28,101.79 489.79,103.71 493.00,105.00
             493.00,105.00 491.00,94.00 491.00,94.00
             491.00,94.00 489.00,94.00 489.00,94.00 Z
           M 466.00,111.00
           C 461.13,115.60 461.40,115.09 456.00,118.46
             454.13,119.62 451.81,121.20 450.19,122.67
             444.74,127.61 443.35,136.50 453.00,136.80
             457.60,136.94 463.50,133.38 467.00,133.75
             469.68,134.04 472.64,136.30 473.26,139.00
             474.06,142.52 470.20,145.18 467.06,144.29
             464.28,143.51 463.73,141.39 463.00,139.00
             463.00,139.00 455.00,147.00 455.00,147.00
             459.06,148.59 462.43,150.83 467.00,150.07
             473.46,148.99 485.69,140.39 479.30,132.22
             475.14,126.91 468.68,128.35 463.00,129.05
             460.91,129.42 457.23,130.29 455.42,129.05
             452.05,126.51 456.36,121.72 459.04,120.78
             462.45,119.58 465.99,121.59 469.00,123.00
             469.00,123.00 466.00,111.00 466.00,111.00 Z
           M 443.00,129.00
           C 436.36,137.20 430.17,132.07 427.40,141.00
             425.15,148.25 427.67,157.61 433.18,162.77
             439.19,168.39 449.02,166.81 453.44,159.98
             455.75,156.42 456.42,153.11 457.00,149.00
             457.00,149.00 450.90,151.00 450.90,151.00
             451.06,152.65 451.24,154.38 450.90,155.99
             449.39,161.13 445.30,162.13 441.17,159.14
             437.22,156.29 434.30,150.87 434.11,146.00
             433.96,142.20 435.36,138.10 440.00,139.21
             440.00,139.21 444.00,141.00 444.00,141.00
             444.00,141.00 443.00,129.00 443.00,129.00 Z" />
</svg>
