<?xml version="1.0" encoding="UTF-8" standalone="no"?>
<!DOCTYPE svg PUBLIC "-//W3C//DTD SVG 20010904//EN"
              "http://www.w3.org/TR/2001/REC-SVG-20010904/DTD/svg10.dtd">

<svg xmlns="http://www.w3.org/2000/svg"
     width="17.9167in" height="6.94444in"
     viewBox="0 0 1290 500">
  <path id="Selection"
        fill="none" stroke="black" stroke-width="1"
        d="M 782.00,182.00
           C 782.00,182.00 783.00,197.00 783.00,197.00
             783.00,197.00 785.00,242.00 785.00,242.00
             785.00,242.00 786.00,262.00 786.00,262.00
             786.02,276.82 787.87,283.15 791.86,297.00
             792.66,299.79 795.06,308.62 796.84,310.20
             799.47,313.02 808.16,310.31 812.00,310.20
             812.00,310.20 812.00,321.00 812.00,321.00
             815.95,319.58 817.48,317.94 820.00,322.00
             820.00,322.00 862.00,318.00 862.00,318.00
             862.00,318.00 861.00,279.00 861.00,279.00
             861.00,279.00 860.04,267.00 860.04,267.00
             860.04,267.00 860.04,253.00 860.04,253.00
             860.04,253.00 859.04,241.00 859.04,241.00
             859.04,241.00 859.04,226.00 859.04,226.00
             859.04,226.00 858.00,209.00 858.00,209.00
             858.00,209.00 857.00,178.00 857.00,178.00
             857.00,178.00 822.00,180.00 822.00,180.00
             822.00,180.00 806.00,181.00 806.00,181.00
             806.00,181.00 782.00,182.00 782.00,182.00 Z" />
</svg>
