<?xml version="1.0" encoding="UTF-8" standalone="no"?>
<!DOCTYPE svg PUBLIC "-//W3C//DTD SVG 20010904//EN"
              "http://www.w3.org/TR/2001/REC-SVG-20010904/DTD/svg10.dtd">

<svg xmlns="http://www.w3.org/2000/svg"
     width="17.9167in" height="6.94444in"
     viewBox="0 0 1290 500">
  <path id="Selection #1"
        fill="none" stroke="black" stroke-width="1"
        d="M 806.00,193.00
           C 806.01,196.07 805.96,203.05 807.98,205.40
             809.28,206.91 811.18,206.90 813.00,206.98
             816.85,207.15 828.77,206.92 830.98,203.57
             832.17,201.73 831.01,192.96 830.98,190.00
             830.98,190.00 806.00,193.00 806.00,193.00 Z
           M 828.00,194.00
           C 828.41,196.34 829.57,200.22 827.40,201.98
             827.22,202.12 810.83,207.22 809.33,200.93
             808.57,197.74 809.89,195.70 813.06,195.14
             813.06,195.14 820.00,194.58 820.00,194.58
             823.83,194.07 824.11,194.04 828.00,194.00 Z
           M 835.00,224.00
           C 831.26,219.01 823.45,221.91 818.00,222.41
             814.80,222.70 811.17,222.41 811.44,218.11
             811.44,218.11 814.00,212.00 814.00,212.00
             812.53,212.12 810.83,212.04 809.60,213.02
             806.62,215.38 807.58,223.85 811.15,225.40
             815.54,227.32 829.03,224.05 835.00,224.00 Z
           M 810.00,235.00
           C 817.01,234.30 816.92,236.80 817.00,243.00
             817.00,243.00 811.00,243.00 811.00,243.00
             811.00,243.00 811.00,247.00 811.00,247.00
             811.00,247.00 827.00,244.73 827.00,244.73
             828.72,244.48 833.01,244.05 834.26,243.01
             837.18,240.59 835.91,231.90 832.70,230.01
             830.94,229.13 827.97,229.77 826.00,230.01
             821.07,230.28 812.14,229.69 810.00,235.00 Z
           M 833.00,241.00
           C 833.00,241.00 820.00,242.00 820.00,242.00
             820.00,242.00 820.00,234.00 820.00,234.00
             830.20,232.17 832.88,231.74 833.00,241.00 Z
           M 812.00,251.00
           C 812.00,251.00 812.00,255.00 812.00,255.00
             812.00,255.00 830.00,253.00 830.00,253.00
             826.49,257.02 818.14,262.61 813.00,264.00
             813.00,264.00 813.00,267.00 813.00,267.00
             813.00,267.00 838.00,265.00 838.00,265.00
             838.00,265.00 838.00,261.00 838.00,261.00
             838.00,261.00 826.00,262.00 826.00,262.00
             832.35,254.52 836.35,257.26 837.00,249.00
             837.00,249.00 812.00,251.00 812.00,251.00 Z
           M 827.00,280.00
           C 821.52,281.54 817.38,285.75 817.00,275.00
             817.00,275.00 836.00,273.00 836.00,273.00
             836.97,281.14 835.91,278.21 834.00,285.00
             843.56,283.40 839.67,272.58 837.49,271.02
             835.27,269.44 829.63,270.07 827.00,270.42
             816.70,271.80 813.30,270.80 814.74,280.00
             814.96,281.44 815.19,283.47 816.02,284.69
             817.39,286.69 826.65,290.74 827.00,280.00 Z
           M 831.00,290.42
           C 827.81,290.88 820.67,290.97 818.31,292.43
             814.74,294.64 815.93,303.97 819.31,305.89
             820.87,306.77 835.43,305.29 837.94,304.86
             843.29,303.92 843.13,295.01 840.07,291.60
             838.03,289.34 833.68,290.10 831.00,290.42 Z
           M 838.00,293.00
           C 838.00,293.00 839.00,302.00 839.00,302.00
             824.55,302.13 819.31,307.04 819.00,295.00
             819.00,295.00 838.00,293.00 838.00,293.00 Z" />
</svg>
