<?xml version="1.0" encoding="UTF-8" standalone="no"?>
<!DOCTYPE svg PUBLIC "-//W3C//DTD SVG 20010904//EN"
              "http://www.w3.org/TR/2001/REC-SVG-20010904/DTD/svg10.dtd">

<svg xmlns="http://www.w3.org/2000/svg"
     width="17.9167in" height="6.94444in"
     viewBox="0 0 1290 500">
  <path id="Selection"
        fill="none" stroke="black" stroke-width="1"
        d="M 782.00,182.00
           C 782.00,182.00 783.00,203.00 783.00,203.00
             783.00,203.00 785.00,251.00 785.00,251.00
             785.00,251.00 786.15,266.00 786.15,266.00
             786.15,266.00 786.15,278.00 786.15,278.00
             786.15,278.00 789.00,285.00 789.00,285.00
             789.00,285.00 797.00,310.89 797.00,310.89
             799.86,310.87 806.45,309.24 808.44,310.89
             810.05,312.00 810.46,314.84 811.85,316.96
             814.17,320.50 816.89,321.72 821.00,321.96
             821.00,321.96 849.00,318.95 849.00,318.95
             851.25,318.70 858.95,317.99 860.43,316.83
             863.67,314.27 861.05,300.22 861.00,296.00
             861.00,296.00 860.00,256.00 860.00,256.00
             860.00,256.00 859.04,244.00 859.04,244.00
             859.04,244.00 859.04,228.00 859.04,228.00
             859.04,228.00 858.00,211.00 858.00,211.00
             858.00,211.00 857.00,179.00 857.00,179.00
             857.00,179.00 837.00,180.00 837.00,180.00
             837.00,180.00 816.00,181.00 816.00,181.00
             816.00,181.00 796.00,182.00 796.00,182.00
             796.00,182.00 782.00,182.00 782.00,182.00 Z" />
</svg>
