<?xml version="1.0" encoding="UTF-8" standalone="no"?>
<!DOCTYPE svg PUBLIC "-//W3C//DTD SVG 20010904//EN"
              "http://www.w3.org/TR/2001/REC-SVG-20010904/DTD/svg10.dtd">

<svg xmlns="http://www.w3.org/2000/svg"
     width="17.9167in" height="6.94444in"
     viewBox="0 0 1290 500">
  <path id="Selection #1"
        fill="none" stroke="black" stroke-width="1"
        d="M 702.00,163.00
           C 702.00,163.00 702.00,177.00 702.00,177.00
             702.00,177.00 708.00,177.00 708.00,177.00
             705.13,175.12 701.46,172.56 707.00,171.00
             707.00,171.00 703.00,169.00 703.00,169.00
             703.96,165.99 704.99,164.96 708.00,164.00
             708.00,164.00 702.00,163.00 702.00,163.00 Z
           M 711.00,163.00
           C 713.58,172.35 713.53,167.63 711.00,177.00
             711.00,177.00 714.00,172.00 714.00,172.00
             714.00,172.00 719.00,177.00 719.00,177.00
             716.66,170.06 716.32,169.92 719.00,163.00
             715.87,164.26 716.10,164.88 715.00,168.00
             715.00,168.00 711.00,163.00 711.00,163.00 Z
           M 722.00,163.00
           C 722.00,163.00 722.00,177.00 722.00,177.00
             722.00,177.00 723.00,172.00 723.00,172.00
             723.00,172.00 728.00,172.00 728.00,172.00
             728.00,172.00 728.00,163.00 728.00,163.00
             728.00,163.00 722.00,163.00 722.00,163.00 Z
           M 727.00,164.00
           C 727.00,164.00 727.00,170.00 727.00,170.00
             727.00,170.00 723.00,170.00 723.00,170.00
             723.00,170.00 723.00,164.00 723.00,164.00
             723.00,164.00 727.00,164.00 727.00,164.00 Z
           M 732.00,163.00
           C 732.06,164.59 731.97,166.29 732.60,167.79
             733.50,169.95 735.45,170.97 736.11,172.31
             737.21,174.58 735.53,175.44 733.04,174.17
             733.04,174.17 731.00,173.00 731.00,173.00
             731.00,173.00 732.00,176.93 732.00,176.93
             732.00,176.93 734.94,176.93 734.94,176.93
             743.63,175.37 734.41,168.55 733.00,164.00
             733.00,164.00 739.00,166.00 739.00,166.00
             736.83,162.76 735.72,163.13 732.00,163.00 Z" />
</svg>
