<?xml version="1.0" encoding="UTF-8" standalone="no"?>
<!DOCTYPE svg PUBLIC "-//W3C//DTD SVG 20010904//EN"
              "http://www.w3.org/TR/2001/REC-SVG-20010904/DTD/svg10.dtd">

<svg xmlns="http://www.w3.org/2000/svg"
     width="17.9167in" height="6.94444in"
     viewBox="0 0 1290 500">
  <path id="Selection"
        fill="none" stroke="black" stroke-width="1"
        d="M 757.00,24.96
           C 757.00,24.96 756.00,42.00 756.00,42.00
             756.00,42.00 755.00,123.00 755.00,123.00
             755.00,123.00 754.00,140.00 754.00,140.00
             754.00,140.00 754.00,168.00 754.00,168.00
             754.00,168.00 788.00,167.00 788.00,167.00
             788.00,167.00 805.00,165.96 805.00,165.96
             805.00,165.96 817.00,165.96 817.00,165.96
             817.00,165.96 829.00,165.00 829.00,165.00
             829.00,165.00 849.00,164.00 849.00,164.00
             849.00,164.00 849.00,60.00 849.00,60.00
             849.00,60.00 848.00,44.00 848.00,44.00
             848.00,44.00 848.00,24.00 848.00,24.00
             848.00,24.00 783.00,24.00 783.00,24.00
             783.00,24.00 771.00,24.96 771.00,24.96
             771.00,24.96 757.00,24.96 757.00,24.96 Z" />
</svg>
