<?xml version="1.0" encoding="UTF-8" standalone="no"?>
<!DOCTYPE svg PUBLIC "-//W3C//DTD SVG 20010904//EN"
              "http://www.w3.org/TR/2001/REC-SVG-20010904/DTD/svg10.dtd">

<svg xmlns="http://www.w3.org/2000/svg"
     width="17.9167in" height="6.94444in"
     viewBox="0 0 1290 500">
  <path id="Selection #1"
        fill="none" stroke="black" stroke-width="1"
        d="M 777.00,26.00
           C 777.00,26.00 777.00,165.00 777.00,165.00
             777.00,165.00 837.00,165.00 837.00,165.00
             837.00,165.00 837.00,26.00 837.00,26.00
             837.00,26.00 777.00,26.00 777.00,26.00 Z
           M 834.00,28.00
           C 834.00,30.71 834.78,40.38 832.41,41.89
             831.35,42.40 830.63,41.99 830.00,41.89
             830.00,41.89 833.00,38.00 833.00,38.00
             833.00,38.00 829.00,36.00 829.00,36.00
             829.00,36.00 833.00,36.00 833.00,36.00
             833.00,36.00 832.00,34.00 832.00,34.00
             832.00,34.00 831.00,34.00 831.00,34.00
             831.00,34.00 833.00,29.00 833.00,29.00
             827.79,29.58 820.33,27.03 817.00,32.00
             817.00,32.00 809.00,29.00 809.00,29.00
             809.00,29.00 807.00,33.00 807.00,33.00
             807.00,33.00 808.00,29.00 808.00,29.00
             808.00,29.00 790.00,31.00 790.00,31.00
             790.00,31.00 790.00,29.00 790.00,29.00
             790.00,29.00 787.00,31.00 787.00,31.00
             787.00,31.00 782.00,31.00 782.00,31.00
             782.00,31.00 782.00,32.00 782.00,32.00
             782.00,32.00 784.00,33.00 784.00,33.00
             784.00,33.00 783.00,36.00 783.00,36.00
             779.34,30.23 782.08,28.10 788.00,28.00
             788.00,28.00 834.00,28.00 834.00,28.00 Z
           M 797.00,31.00
           C 794.78,33.47 793.19,32.96 790.00,33.00
             790.00,33.00 797.00,31.00 797.00,31.00 Z
           M 815.00,31.00
           C 815.00,31.00 815.00,32.00 815.00,32.00
             815.00,32.00 814.00,31.00 814.00,31.00
             814.00,31.00 815.00,31.00 815.00,31.00 Z
           M 821.00,31.00
           C 821.00,31.00 817.00,35.00 817.00,35.00
             817.00,35.00 821.00,31.00 821.00,31.00 Z
           M 827.00,31.00
           C 827.00,31.00 823.00,32.00 823.00,32.00
             823.00,32.00 827.00,31.00 827.00,31.00 Z
           M 830.00,31.00
           C 830.00,31.00 830.00,32.00 830.00,32.00
             830.00,32.00 829.00,31.00 829.00,31.00
             829.00,31.00 830.00,31.00 830.00,31.00 Z
           M 816.00,32.00
           C 816.00,32.00 816.00,33.00 816.00,33.00
             816.00,33.00 815.00,32.00 815.00,32.00
             815.00,32.00 816.00,32.00 816.00,32.00 Z
           M 790.00,33.00
           C 790.00,33.00 790.00,34.00 790.00,34.00
             790.00,34.00 789.00,33.00 789.00,33.00
             789.00,33.00 790.00,33.00 790.00,33.00 Z
           M 805.00,33.00
           C 805.00,33.00 805.00,34.00 805.00,34.00
             805.00,34.00 804.00,33.00 804.00,33.00
             804.00,33.00 805.00,33.00 805.00,33.00 Z
           M 815.00,33.00
           C 815.00,33.00 815.00,34.00 815.00,34.00
             815.00,34.00 814.00,33.00 814.00,33.00
             814.00,33.00 815.00,33.00 815.00,33.00 Z
           M 806.00,34.00
           C 806.00,34.00 806.00,35.00 806.00,35.00
             806.00,35.00 805.00,34.00 805.00,34.00
             805.00,34.00 806.00,34.00 806.00,34.00 Z
           M 808.00,34.00
           C 808.00,34.00 808.00,35.00 808.00,35.00
             808.00,35.00 807.00,34.00 807.00,34.00
             807.00,34.00 808.00,34.00 808.00,34.00 Z
           M 814.00,34.00
           C 814.00,34.00 814.00,35.00 814.00,35.00
             814.00,35.00 813.00,34.00 813.00,34.00
             813.00,34.00 814.00,34.00 814.00,34.00 Z
           M 787.00,35.00
           C 787.00,35.00 787.00,36.00 787.00,36.00
             787.00,36.00 786.00,35.00 786.00,35.00
             786.00,35.00 787.00,35.00 787.00,35.00 Z
           M 794.00,35.00
           C 794.00,35.00 797.00,38.00 797.00,38.00
             797.00,38.00 796.00,41.00 796.00,41.00
             793.85,38.65 792.87,38.12 794.00,35.00 Z
           M 809.00,35.00
           C 809.00,35.00 809.00,36.00 809.00,36.00
             809.00,36.00 808.00,35.00 808.00,35.00
             808.00,35.00 809.00,35.00 809.00,35.00 Z
           M 813.00,35.00
           C 813.00,35.00 813.00,36.00 813.00,36.00
             813.00,36.00 812.00,35.00 812.00,35.00
             812.00,35.00 813.00,35.00 813.00,35.00 Z
           M 805.00,36.00
           C 805.00,36.00 810.00,37.00 810.00,37.00
             810.00,37.00 804.00,39.00 804.00,39.00
             804.00,39.00 805.00,36.00 805.00,36.00 Z
           M 827.00,36.00
           C 827.00,36.00 827.00,37.00 827.00,37.00
             827.00,37.00 826.00,36.00 826.00,36.00
             826.00,36.00 827.00,36.00 827.00,36.00 Z
           M 792.00,37.00
           C 792.00,37.00 792.00,38.00 792.00,38.00
             792.00,38.00 791.00,37.00 791.00,37.00
             791.00,37.00 792.00,37.00 792.00,37.00 Z
           M 798.00,37.00
           C 798.00,37.00 798.00,38.00 798.00,38.00
             798.00,38.00 797.00,37.00 797.00,37.00
             797.00,37.00 798.00,37.00 798.00,37.00 Z
           M 800.00,37.00
           C 800.00,37.00 800.00,38.00 800.00,38.00
             800.00,38.00 799.00,37.00 799.00,37.00
             799.00,37.00 800.00,37.00 800.00,37.00 Z
           M 830.00,42.00
           C 830.00,42.00 816.00,43.00 816.00,43.00
             816.00,43.00 816.00,45.00 816.00,45.00
             819.39,45.00 831.00,44.10 832.98,46.60
             834.48,48.49 834.00,56.34 834.00,59.00
             834.00,59.00 827.00,54.00 827.00,54.00
             827.00,54.00 833.00,55.00 833.00,55.00
             832.38,49.38 833.29,47.06 827.00,46.00
             827.00,46.00 827.00,53.00 827.00,53.00
             827.00,53.00 826.00,46.00 826.00,46.00
             826.00,46.00 813.00,46.00 813.00,46.00
             813.00,46.00 815.00,40.00 815.00,40.00
             815.00,40.00 810.00,39.00 810.00,39.00
             815.33,36.41 823.72,41.43 830.00,42.00 Z
           M 825.00,37.00
           C 825.00,37.00 825.00,38.00 825.00,38.00
             825.00,38.00 824.00,37.00 824.00,37.00
             824.00,37.00 825.00,37.00 825.00,37.00 Z
           M 785.00,39.00
           C 789.42,42.70 795.51,42.00 801.00,42.00
             801.00,42.00 782.00,43.00 782.00,43.00
             782.00,43.00 785.00,39.00 785.00,39.00 Z
           M 799.00,39.00
           C 799.00,39.00 799.00,40.00 799.00,40.00
             799.00,40.00 798.00,39.00 798.00,39.00
             798.00,39.00 799.00,39.00 799.00,39.00 Z
           M 807.00,39.00
           C 807.00,39.00 808.00,43.00 808.00,43.00
             808.00,43.00 807.00,39.00 807.00,39.00 Z
           M 810.00,39.00
           C 810.00,39.00 810.00,40.00 810.00,40.00
             810.00,40.00 809.00,39.00 809.00,39.00
             809.00,39.00 810.00,39.00 810.00,39.00 Z
           M 802.00,41.00
           C 804.85,45.09 802.59,46.46 800.00,50.00
             800.00,50.00 799.00,46.00 799.00,46.00
             799.00,46.00 783.00,46.00 783.00,46.00
             783.00,46.00 803.00,45.00 803.00,45.00
             803.00,45.00 802.00,41.00 802.00,41.00 Z
           M 812.00,46.00
           C 812.00,46.00 809.00,48.00 809.00,48.00
             809.00,48.00 810.00,45.00 810.00,45.00
             810.00,45.00 812.00,46.00 812.00,46.00 Z
           M 783.00,46.00
           C 783.00,46.00 785.00,48.00 785.00,48.00
             785.00,48.00 785.00,49.00 785.00,49.00
             785.00,49.00 782.00,55.00 782.00,55.00
             784.87,55.55 784.87,55.29 786.00,58.00
             786.00,58.00 783.00,56.00 783.00,56.00
             783.00,56.00 782.00,59.00 782.00,59.00
             780.44,55.06 780.43,49.46 783.00,46.00 Z
           M 797.00,47.00
           C 797.00,47.00 797.00,48.00 797.00,48.00
             797.00,48.00 796.00,47.00 796.00,47.00
             796.00,47.00 797.00,47.00 797.00,47.00 Z
           M 813.00,47.00
           C 813.00,47.00 813.00,48.00 813.00,48.00
             813.00,48.00 812.00,47.00 812.00,47.00
             812.00,47.00 813.00,47.00 813.00,47.00 Z
           M 820.00,47.00
           C 820.00,47.00 820.00,48.00 820.00,48.00
             820.00,48.00 819.00,47.00 819.00,47.00
             819.00,47.00 820.00,47.00 820.00,47.00 Z
           M 794.00,48.00
           C 794.00,48.00 794.00,49.00 794.00,49.00
             794.00,49.00 793.00,48.00 793.00,48.00
             793.00,48.00 794.00,48.00 794.00,48.00 Z
           M 818.00,48.00
           C 818.00,48.00 818.00,52.00 818.00,52.00
             818.00,52.00 818.00,48.00 818.00,48.00 Z
           M 789.00,49.00
           C 789.00,49.00 788.00,52.00 788.00,52.00
             788.00,52.00 786.00,49.00 786.00,49.00
             786.00,49.00 789.00,49.00 789.00,49.00 Z
           M 806.00,49.00
           C 806.00,49.00 802.00,51.00 802.00,51.00
             802.00,51.00 806.00,49.00 806.00,49.00 Z
           M 832.00,49.00
           C 832.00,49.00 832.00,50.00 832.00,50.00
             832.00,50.00 831.00,49.00 831.00,49.00
             831.00,49.00 832.00,49.00 832.00,49.00 Z
           M 790.00,50.00
           C 790.00,50.00 790.00,51.00 790.00,51.00
             790.00,51.00 789.00,50.00 789.00,50.00
             789.00,50.00 790.00,50.00 790.00,50.00 Z
           M 792.00,50.00
           C 792.00,50.00 792.00,51.00 792.00,51.00
             792.00,51.00 791.00,50.00 791.00,50.00
             791.00,50.00 792.00,50.00 792.00,50.00 Z
           M 797.00,50.00
           C 797.00,50.00 797.00,51.00 797.00,51.00
             797.00,51.00 796.00,50.00 796.00,50.00
             796.00,50.00 797.00,50.00 797.00,50.00 Z
           M 799.00,51.00
           C 799.00,51.00 799.00,52.00 799.00,52.00
             799.00,52.00 798.00,51.00 798.00,51.00
             798.00,51.00 799.00,51.00 799.00,51.00 Z
           M 802.00,51.00
           C 802.00,51.00 802.00,52.00 802.00,52.00
             802.00,52.00 801.00,51.00 801.00,51.00
             801.00,51.00 802.00,51.00 802.00,51.00 Z
           M 821.00,51.00
           C 821.00,51.00 821.00,52.00 821.00,52.00
             821.00,52.00 820.00,51.00 820.00,51.00
             820.00,51.00 821.00,51.00 821.00,51.00 Z
           M 789.00,52.00
           C 789.00,52.00 789.00,53.00 789.00,53.00
             789.00,53.00 788.00,52.00 788.00,52.00
             788.00,52.00 789.00,52.00 789.00,52.00 Z
           M 797.00,52.00
           C 797.00,52.00 797.00,53.00 797.00,53.00
             797.00,53.00 796.00,52.00 796.00,52.00
             796.00,52.00 797.00,52.00 797.00,52.00 Z
           M 801.00,52.00
           C 801.00,52.00 801.00,53.00 801.00,53.00
             801.00,53.00 800.00,52.00 800.00,52.00
             800.00,52.00 801.00,52.00 801.00,52.00 Z
           M 806.00,52.00
           C 806.00,52.00 806.00,53.00 806.00,53.00
             806.00,53.00 805.00,52.00 805.00,52.00
             805.00,52.00 806.00,52.00 806.00,52.00 Z
           M 813.00,52.00
           C 813.00,52.00 816.00,56.00 816.00,56.00
             816.00,56.00 809.00,55.00 809.00,55.00
             809.00,55.00 811.00,52.00 811.00,52.00
             811.00,52.00 813.00,52.00 813.00,52.00 Z
           M 796.00,53.00
           C 796.00,53.00 796.00,54.00 796.00,54.00
             796.00,54.00 795.00,53.00 795.00,53.00
             795.00,53.00 796.00,53.00 796.00,53.00 Z
           M 823.00,53.00
           C 823.00,53.00 823.00,58.00 823.00,58.00
             823.00,58.00 823.00,53.00 823.00,53.00 Z
           M 788.00,54.00
           C 788.00,54.00 788.00,58.00 788.00,58.00
             788.00,58.00 788.00,54.00 788.00,54.00 Z
           M 792.00,54.00
           C 792.00,54.00 792.00,55.00 792.00,55.00
             792.00,55.00 791.00,54.00 791.00,54.00
             791.00,54.00 792.00,54.00 792.00,54.00 Z
           M 797.00,55.00
           C 797.00,55.00 803.00,57.00 803.00,57.00
             803.00,57.00 800.00,58.00 800.00,58.00
             800.00,58.00 833.00,59.00 833.00,59.00
             833.00,59.00 816.00,60.00 816.00,60.00
             816.00,60.00 782.00,60.00 782.00,60.00
             782.00,60.00 798.00,59.00 798.00,59.00
             798.00,59.00 797.00,55.00 797.00,55.00 Z
           M 812.00,56.00
           C 812.00,56.00 812.00,57.00 812.00,57.00
             812.00,57.00 811.00,56.00 811.00,56.00
             811.00,56.00 812.00,56.00 812.00,56.00 Z
           M 821.00,56.00
           C 821.00,56.00 821.00,57.00 821.00,57.00
             821.00,57.00 820.00,56.00 820.00,56.00
             820.00,56.00 821.00,56.00 821.00,56.00 Z
           M 826.00,56.00
           C 826.00,56.00 826.00,57.00 826.00,57.00
             826.00,57.00 825.00,56.00 825.00,56.00
             825.00,56.00 826.00,56.00 826.00,56.00 Z
           M 825.00,57.00
           C 825.00,57.00 825.00,58.00 825.00,58.00
             825.00,58.00 824.00,57.00 824.00,57.00
             824.00,57.00 825.00,57.00 825.00,57.00 Z
           M 834.00,63.00
           C 834.00,63.00 834.00,93.00 834.00,93.00
             824.04,93.00 822.23,94.09 822.00,85.00
             822.00,85.00 814.00,85.00 814.00,85.00
             814.00,85.00 820.00,84.00 820.00,84.00
             820.00,84.00 820.00,80.00 820.00,80.00
             820.00,80.00 821.00,84.00 821.00,84.00
             825.51,87.11 822.52,92.33 828.00,90.00
             828.00,90.00 833.00,92.00 833.00,92.00
             833.00,92.00 831.00,89.00 831.00,89.00
             831.00,89.00 833.00,64.00 833.00,64.00
             833.00,64.00 828.00,66.00 828.00,66.00
             828.00,66.00 823.00,64.00 823.00,64.00
             827.24,61.27 829.25,62.38 834.00,63.00 Z
           M 823.00,64.00
           C 824.57,73.39 821.91,69.20 820.00,74.00
             820.00,74.00 817.00,71.00 817.00,71.00
             817.00,71.00 818.00,70.00 818.00,70.00
             818.00,70.00 822.00,71.00 822.00,71.00
             822.00,71.00 823.00,64.00 823.00,64.00 Z
           M 826.00,66.00
           C 826.00,66.00 826.00,67.00 826.00,67.00
             826.00,67.00 825.00,66.00 825.00,66.00
             825.00,66.00 826.00,66.00 826.00,66.00 Z
           M 828.00,69.00
           C 828.00,69.00 828.00,70.00 828.00,70.00
             828.00,70.00 827.00,69.00 827.00,69.00
             827.00,69.00 828.00,69.00 828.00,69.00 Z
           M 789.00,71.00
           C 789.00,71.00 788.00,73.00 788.00,73.00
             788.00,73.00 790.00,75.00 790.00,75.00
             790.00,75.00 786.00,74.00 786.00,74.00
             786.00,74.00 787.00,71.00 787.00,71.00
             787.00,71.00 783.00,71.00 783.00,71.00
             783.00,71.00 786.00,72.00 786.00,72.00
             786.00,72.00 782.00,76.00 782.00,76.00
             782.00,76.00 782.00,70.00 782.00,70.00
             782.00,70.00 789.00,71.00 789.00,71.00 Z
           M 797.00,71.00
           C 797.00,71.00 789.00,71.00 789.00,71.00
             789.00,71.00 797.00,71.00 797.00,71.00 Z
           M 808.00,73.00
           C 808.00,73.00 797.00,71.00 797.00,71.00
             800.95,69.44 805.39,69.25 808.00,73.00 Z
           M 817.00,70.00
           C 817.00,70.00 810.00,74.00 810.00,74.00
             810.00,74.00 808.00,70.00 808.00,70.00
             808.00,70.00 817.00,70.00 817.00,70.00 Z
           M 832.00,70.00
           C 832.00,70.00 832.00,71.00 832.00,71.00
             832.00,71.00 831.00,70.00 831.00,70.00
             831.00,70.00 832.00,70.00 832.00,70.00 Z
           M 795.00,72.00
           C 795.00,72.00 795.00,73.00 795.00,73.00
             795.00,73.00 794.00,72.00 794.00,72.00
             794.00,72.00 795.00,72.00 795.00,72.00 Z
           M 824.00,72.00
           C 824.00,72.00 826.00,76.00 826.00,76.00
             826.00,76.00 824.00,72.00 824.00,72.00 Z
           M 805.00,73.00
           C 805.00,73.00 805.00,74.00 805.00,74.00
             805.00,74.00 804.00,73.00 804.00,73.00
             804.00,73.00 805.00,73.00 805.00,73.00 Z
           M 828.00,73.00
           C 828.00,73.00 828.00,74.00 828.00,74.00
             828.00,74.00 827.00,73.00 827.00,73.00
             827.00,73.00 828.00,73.00 828.00,73.00 Z
           M 793.00,74.00
           C 793.00,74.00 793.00,75.00 793.00,75.00
             793.00,75.00 792.00,74.00 792.00,74.00
             792.00,74.00 793.00,74.00 793.00,74.00 Z
           M 796.00,74.00
           C 796.00,74.00 796.00,75.00 796.00,75.00
             796.00,75.00 795.00,74.00 795.00,74.00
             795.00,74.00 796.00,74.00 796.00,74.00 Z
           M 792.00,75.00
           C 792.00,75.00 793.00,77.00 793.00,77.00
             793.00,77.00 789.00,78.00 789.00,78.00
             789.00,78.00 790.00,75.00 790.00,75.00
             790.00,75.00 792.00,75.00 792.00,75.00 Z
           M 815.00,75.00
           C 815.00,75.00 815.00,76.00 815.00,76.00
             815.00,76.00 814.00,75.00 814.00,75.00
             814.00,75.00 815.00,75.00 815.00,75.00 Z
           M 830.00,75.00
           C 830.00,75.00 830.00,76.00 830.00,76.00
             830.00,76.00 829.00,75.00 829.00,75.00
             829.00,75.00 830.00,75.00 830.00,75.00 Z
           M 805.00,76.00
           C 805.00,76.00 805.00,77.00 805.00,77.00
             805.00,77.00 804.00,76.00 804.00,76.00
             804.00,76.00 805.00,76.00 805.00,76.00 Z
           M 831.00,76.00
           C 831.00,76.00 831.00,77.00 831.00,77.00
             831.00,77.00 830.00,76.00 830.00,76.00
             830.00,76.00 831.00,76.00 831.00,76.00 Z
           M 787.00,77.00
           C 787.00,77.00 787.00,78.00 787.00,78.00
             787.00,78.00 786.00,77.00 786.00,77.00
             786.00,77.00 787.00,77.00 787.00,77.00 Z
           M 818.00,77.00
           C 818.00,77.00 818.00,78.00 818.00,78.00
             818.00,78.00 817.00,77.00 817.00,77.00
             817.00,77.00 818.00,77.00 818.00,77.00 Z
           M 830.00,77.00
           C 830.00,77.00 831.00,86.00 831.00,86.00
             827.86,83.37 828.35,80.44 830.00,77.00 Z
           M 786.00,78.00
           C 786.00,78.00 786.00,79.00 786.00,79.00
             786.00,79.00 785.00,78.00 785.00,78.00
             785.00,78.00 786.00,78.00 786.00,78.00 Z
           M 795.00,78.00
           C 795.00,78.00 795.00,79.00 795.00,79.00
             795.00,79.00 794.00,78.00 794.00,78.00
             794.00,78.00 795.00,78.00 795.00,78.00 Z
           M 798.00,78.00
           C 798.00,78.00 798.00,79.00 798.00,79.00
             798.00,79.00 797.00,78.00 797.00,78.00
             797.00,78.00 798.00,78.00 798.00,78.00 Z
           M 803.00,78.00
           C 803.00,78.00 802.00,82.00 802.00,82.00
             802.00,82.00 803.00,78.00 803.00,78.00 Z
           M 815.00,78.00
           C 815.00,78.00 811.00,79.00 811.00,79.00
             811.00,79.00 815.00,78.00 815.00,78.00 Z
           M 799.00,79.00
           C 799.00,79.00 799.00,80.00 799.00,80.00
             799.00,80.00 798.00,79.00 798.00,79.00
             798.00,79.00 799.00,79.00 799.00,79.00 Z
           M 816.00,79.00
           C 816.00,79.00 816.00,80.00 816.00,80.00
             816.00,80.00 815.00,79.00 815.00,79.00
             815.00,79.00 816.00,79.00 816.00,79.00 Z
           M 823.00,79.00
           C 823.00,79.00 823.00,80.00 823.00,80.00
             823.00,80.00 822.00,79.00 822.00,79.00
             822.00,79.00 823.00,79.00 823.00,79.00 Z
           M 782.00,80.00
           C 782.00,80.00 783.00,85.00 783.00,85.00
             783.00,85.00 782.00,80.00 782.00,80.00 Z
           M 785.00,80.00
           C 785.00,80.00 785.00,81.00 785.00,81.00
             785.00,81.00 784.00,80.00 784.00,80.00
             784.00,80.00 785.00,80.00 785.00,80.00 Z
           M 787.00,80.00
           C 787.00,80.00 787.00,81.00 787.00,81.00
             787.00,81.00 786.00,80.00 786.00,80.00
             786.00,80.00 787.00,80.00 787.00,80.00 Z
           M 817.00,80.00
           C 817.00,80.00 816.00,83.00 816.00,83.00
             816.00,83.00 817.00,80.00 817.00,80.00 Z
           M 790.00,81.00
           C 790.00,81.00 790.00,82.00 790.00,82.00
             790.00,82.00 789.00,81.00 789.00,81.00
             789.00,81.00 790.00,81.00 790.00,81.00 Z
           M 814.00,81.00
           C 814.00,81.00 814.00,82.00 814.00,82.00
             814.00,82.00 813.00,81.00 813.00,81.00
             813.00,81.00 814.00,81.00 814.00,81.00 Z
           M 791.00,82.00
           C 793.79,83.57 794.23,83.61 797.00,82.00
             798.06,86.74 791.04,85.06 788.00,85.00
             788.00,85.00 791.00,82.00 791.00,82.00 Z
           M 806.00,82.00
           C 806.00,82.00 806.00,83.00 806.00,83.00
             806.00,83.00 805.00,82.00 805.00,82.00
             805.00,82.00 806.00,82.00 806.00,82.00 Z
           M 812.00,82.00
           C 812.00,82.00 812.00,85.00 812.00,85.00
             812.00,85.00 808.00,85.00 808.00,85.00
             808.00,85.00 809.00,82.00 809.00,82.00
             809.00,82.00 812.00,82.00 812.00,82.00 Z
           M 805.00,83.00
           C 805.00,83.00 807.00,85.00 807.00,85.00
             807.00,85.00 808.00,85.00 808.00,85.00
             808.00,85.00 803.00,84.00 803.00,84.00
             803.00,84.00 805.00,83.00 805.00,83.00 Z
           M 785.00,84.00
           C 785.00,84.00 788.00,85.00 788.00,85.00
             788.00,85.00 784.00,85.00 784.00,85.00
             784.00,85.00 785.00,84.00 785.00,84.00 Z
           M 784.00,85.00
           C 784.00,85.00 784.00,86.00 784.00,86.00
             784.00,86.00 783.00,85.00 783.00,85.00
             783.00,85.00 784.00,85.00 784.00,85.00 Z
           M 799.00,85.00
           C 799.00,85.00 799.00,86.00 799.00,86.00
             799.00,86.00 798.00,85.00 798.00,85.00
             798.00,85.00 799.00,85.00 799.00,85.00 Z
           M 803.00,85.00
           C 803.00,85.00 803.00,86.00 803.00,86.00
             803.00,86.00 802.00,85.00 802.00,85.00
             802.00,85.00 803.00,85.00 803.00,85.00 Z
           M 826.00,86.00
           C 826.00,86.00 826.00,87.00 826.00,87.00
             826.00,87.00 825.00,86.00 825.00,86.00
             825.00,86.00 826.00,86.00 826.00,86.00 Z
           M 785.00,95.00
           C 785.00,95.00 785.00,96.00 785.00,96.00
             785.00,96.00 784.00,95.00 784.00,95.00
             784.00,95.00 785.00,95.00 785.00,95.00 Z
           M 792.00,95.00
           C 792.00,95.00 785.00,97.00 785.00,97.00
             785.00,97.00 792.00,95.00 792.00,95.00 Z
           M 797.00,96.00
           C 797.00,96.00 792.00,97.00 792.00,97.00
             792.00,97.00 797.00,96.00 797.00,96.00 Z
           M 798.00,95.00
           C 806.71,95.85 808.47,94.30 809.00,101.00
             809.00,101.00 797.00,96.00 797.00,96.00
             797.00,96.00 798.00,95.00 798.00,95.00 Z
           M 810.00,95.00
           C 810.00,95.00 810.00,96.00 810.00,96.00
             810.00,96.00 809.00,95.00 809.00,95.00
             809.00,95.00 810.00,95.00 810.00,95.00 Z
           M 817.00,95.00
           C 817.00,95.00 812.00,96.00 812.00,96.00
             812.00,96.00 817.00,95.00 817.00,95.00 Z
           M 833.00,95.00
           C 833.00,95.00 831.00,98.00 831.00,98.00
             831.00,98.00 822.00,96.00 822.00,96.00
             822.00,96.00 833.00,95.00 833.00,95.00 Z
           M 784.00,96.00
           C 784.00,96.00 784.00,104.00 784.00,104.00
             784.00,104.00 782.00,105.00 782.00,105.00
             782.00,105.00 782.00,106.00 782.00,106.00
             782.00,106.00 782.00,96.00 782.00,96.00
             782.00,96.00 784.00,96.00 784.00,96.00 Z
           M 822.00,96.00
           C 822.00,96.00 817.00,97.00 817.00,97.00
             817.00,97.00 822.00,96.00 822.00,96.00 Z
           M 832.00,98.00
           C 832.00,98.00 832.00,99.00 832.00,99.00
             832.00,99.00 831.00,98.00 831.00,98.00
             831.00,98.00 832.00,98.00 832.00,98.00 Z
           M 799.00,99.00
           C 799.00,99.00 799.00,100.00 799.00,100.00
             799.00,100.00 798.00,99.00 798.00,99.00
             798.00,99.00 799.00,99.00 799.00,99.00 Z
           M 801.00,99.00
           C 801.00,99.00 801.00,100.00 801.00,100.00
             801.00,100.00 800.00,99.00 800.00,99.00
             800.00,99.00 801.00,99.00 801.00,99.00 Z
           M 820.00,99.00
           C 820.00,99.00 818.00,104.00 818.00,104.00
             818.00,104.00 820.00,99.00 820.00,99.00 Z
           M 804.00,100.00
           C 804.00,100.00 803.00,104.00 803.00,104.00
             803.00,104.00 801.00,100.00 801.00,100.00
             801.00,100.00 804.00,100.00 804.00,100.00 Z
           M 830.00,100.00
           C 830.00,100.00 826.00,101.00 826.00,101.00
             826.00,101.00 830.00,100.00 830.00,100.00 Z
           M 833.00,100.00
           C 833.00,100.00 834.00,112.00 834.00,112.00
             832.00,108.61 831.17,103.55 833.00,100.00 Z
           M 807.00,101.00
           C 807.00,101.00 807.00,102.00 807.00,102.00
             807.00,102.00 806.00,101.00 806.00,101.00
             806.00,101.00 807.00,101.00 807.00,101.00 Z
           M 793.00,102.00
           C 793.00,102.00 793.00,103.00 793.00,103.00
             793.00,103.00 792.00,102.00 792.00,102.00
             792.00,102.00 793.00,102.00 793.00,102.00 Z
           M 801.00,102.00
           C 801.00,102.00 801.00,103.00 801.00,103.00
             801.00,103.00 800.00,102.00 800.00,102.00
             800.00,102.00 801.00,102.00 801.00,102.00 Z
           M 826.00,102.00
           C 826.00,102.00 826.00,103.00 826.00,103.00
             826.00,103.00 825.00,102.00 825.00,102.00
             825.00,102.00 826.00,102.00 826.00,102.00 Z
           M 828.00,102.00
           C 828.00,102.00 828.00,106.00 828.00,106.00
             828.00,106.00 828.00,102.00 828.00,102.00 Z
           M 794.00,103.00
           C 794.00,103.00 794.00,104.00 794.00,104.00
             794.00,104.00 793.00,103.00 793.00,103.00
             793.00,103.00 794.00,103.00 794.00,103.00 Z
           M 814.00,103.00
           C 814.00,103.00 814.00,104.00 814.00,104.00
             814.00,104.00 813.00,103.00 813.00,103.00
             813.00,103.00 814.00,103.00 814.00,103.00 Z
           M 796.00,104.00
           C 796.00,104.00 796.00,105.00 796.00,105.00
             796.00,105.00 795.00,104.00 795.00,104.00
             795.00,104.00 796.00,104.00 796.00,104.00 Z
           M 804.00,104.00
           C 804.00,104.00 804.00,105.00 804.00,105.00
             804.00,105.00 803.00,104.00 803.00,104.00
             803.00,104.00 804.00,104.00 804.00,104.00 Z
           M 832.00,104.00
           C 832.00,104.00 832.00,105.00 832.00,105.00
             832.00,105.00 831.00,104.00 831.00,104.00
             831.00,104.00 832.00,104.00 832.00,104.00 Z
           M 790.00,105.00
           C 790.00,105.00 789.00,108.00 789.00,108.00
             789.00,108.00 794.28,106.65 794.28,106.65
             799.08,106.15 805.07,109.22 814.00,106.00
             812.84,109.31 812.19,109.65 809.00,111.00
             809.00,111.00 810.00,109.00 810.00,109.00
             810.00,109.00 805.00,112.00 805.00,112.00
             805.00,112.00 795.00,111.00 795.00,111.00
             795.00,111.00 795.00,113.00 795.00,113.00
             795.00,113.00 790.00,112.00 790.00,112.00
             790.00,112.00 791.00,122.00 791.00,122.00
             791.00,122.00 793.00,120.00 793.00,120.00
             797.78,124.54 801.83,124.00 808.00,124.00
             808.00,124.00 806.00,120.00 806.00,120.00
             806.00,120.00 807.00,119.00 807.00,119.00
             807.00,119.00 809.00,125.00 809.00,125.00
             809.00,125.00 815.00,124.00 815.00,124.00
             811.96,127.77 810.05,125.46 806.09,126.58
             806.09,126.58 801.00,129.00 801.00,129.00
             801.00,129.00 802.00,126.00 802.00,126.00
             797.78,126.15 797.08,125.96 794.00,129.00
             794.00,129.00 791.00,128.00 791.00,128.00
             791.00,128.00 791.00,127.00 791.00,127.00
             791.00,127.00 793.00,127.00 793.00,127.00
             788.02,125.95 783.80,125.51 782.00,131.00
             779.05,122.67 792.18,125.00 797.00,125.00
             789.64,121.94 786.51,123.63 783.94,121.87
             780.90,119.79 780.19,114.41 783.43,112.17
             785.34,110.85 796.22,110.06 799.00,110.00
             799.00,110.00 783.59,108.41 783.59,108.41
             783.59,108.41 782.00,106.00 782.00,106.00
             785.36,106.90 785.27,107.18 788.00,105.00
             788.00,105.00 790.00,105.00 790.00,105.00 Z
           M 803.00,105.00
           C 803.00,105.00 803.00,106.00 803.00,106.00
             803.00,106.00 802.00,105.00 802.00,105.00
             802.00,105.00 803.00,105.00 803.00,105.00 Z
           M 791.00,106.00
           C 791.00,106.00 791.00,107.00 791.00,107.00
             791.00,107.00 790.00,106.00 790.00,106.00
             790.00,106.00 791.00,106.00 791.00,106.00 Z
           M 825.00,107.00
           C 825.00,107.00 825.00,108.00 825.00,108.00
             825.00,108.00 824.00,107.00 824.00,107.00
             824.00,107.00 825.00,107.00 825.00,107.00 Z
           M 827.00,107.00
           C 827.00,107.00 827.00,108.00 827.00,108.00
             827.00,108.00 826.00,107.00 826.00,107.00
             826.00,107.00 827.00,107.00 827.00,107.00 Z
           M 818.00,108.00
           C 818.00,108.00 818.00,109.00 818.00,109.00
             818.00,109.00 817.00,108.00 817.00,108.00
             817.00,108.00 818.00,108.00 818.00,108.00 Z
           M 828.00,108.00
           C 828.00,108.00 828.00,109.00 828.00,109.00
             828.00,109.00 827.00,108.00 827.00,108.00
             827.00,108.00 828.00,108.00 828.00,108.00 Z
           M 820.00,109.00
           C 820.00,109.00 820.00,110.00 820.00,110.00
             820.00,110.00 819.00,109.00 819.00,109.00
             819.00,109.00 820.00,109.00 820.00,109.00 Z
           M 829.00,109.00
           C 829.00,109.00 829.00,110.00 829.00,110.00
             829.00,110.00 828.00,109.00 828.00,109.00
             828.00,109.00 829.00,109.00 829.00,109.00 Z
           M 815.00,110.00
           C 815.00,110.00 815.00,111.00 815.00,111.00
             815.00,111.00 814.00,110.00 814.00,110.00
             814.00,110.00 815.00,110.00 815.00,110.00 Z
           M 826.00,110.00
           C 826.00,110.00 826.00,111.00 826.00,111.00
             826.00,111.00 825.00,110.00 825.00,110.00
             825.00,110.00 826.00,110.00 826.00,110.00 Z
           M 802.00,111.00
           C 802.00,111.00 802.00,112.00 802.00,112.00
             802.00,112.00 801.00,111.00 801.00,111.00
             801.00,111.00 802.00,111.00 802.00,111.00 Z
           M 809.00,111.00
           C 809.00,111.00 809.00,112.00 809.00,112.00
             809.00,112.00 808.00,111.00 808.00,111.00
             808.00,111.00 809.00,111.00 809.00,111.00 Z
           M 812.00,111.00
           C 812.00,111.00 812.00,112.00 812.00,112.00
             812.00,112.00 811.00,111.00 811.00,111.00
             811.00,111.00 812.00,111.00 812.00,111.00 Z
           M 819.00,111.00
           C 819.00,111.00 819.00,112.00 819.00,112.00
             819.00,112.00 818.00,111.00 818.00,111.00
             818.00,111.00 819.00,111.00 819.00,111.00 Z
           M 823.00,111.00
           C 823.00,111.00 823.00,112.00 823.00,112.00
             823.00,112.00 822.00,111.00 822.00,111.00
             822.00,111.00 823.00,111.00 823.00,111.00 Z
           M 827.00,111.00
           C 827.00,111.00 827.00,112.00 827.00,112.00
             827.00,112.00 826.00,111.00 826.00,111.00
             826.00,111.00 827.00,111.00 827.00,111.00 Z
           M 804.00,112.00
           C 804.00,112.00 804.00,113.00 804.00,113.00
             804.00,113.00 803.00,112.00 803.00,112.00
             803.00,112.00 804.00,112.00 804.00,112.00 Z
           M 808.00,112.00
           C 808.00,112.00 808.00,113.00 808.00,113.00
             808.00,113.00 807.00,112.00 807.00,112.00
             807.00,112.00 808.00,112.00 808.00,112.00 Z
           M 813.00,112.00
           C 813.00,112.00 813.00,113.00 813.00,113.00
             813.00,113.00 812.00,112.00 812.00,112.00
             812.00,112.00 813.00,112.00 813.00,112.00 Z
           M 815.00,112.00
           C 815.00,112.00 815.00,113.00 815.00,113.00
             815.00,113.00 814.00,112.00 814.00,112.00
             814.00,112.00 815.00,112.00 815.00,112.00 Z
           M 820.00,112.00
           C 820.00,112.00 820.00,113.00 820.00,113.00
             820.00,113.00 819.00,112.00 819.00,112.00
             819.00,112.00 820.00,112.00 820.00,112.00 Z
           M 832.00,112.00
           C 832.99,116.49 822.99,115.97 820.00,116.00
             820.00,116.00 823.00,112.00 823.00,112.00
             826.94,113.21 828.38,114.51 832.00,112.00 Z
           M 829.00,112.00
           C 829.00,112.00 829.00,113.00 829.00,113.00
             829.00,113.00 828.00,112.00 828.00,112.00
             828.00,112.00 829.00,112.00 829.00,112.00 Z
           M 810.00,113.00
           C 810.00,113.00 810.00,114.00 810.00,114.00
             810.00,114.00 809.00,113.00 809.00,113.00
             809.00,113.00 810.00,113.00 810.00,113.00 Z
           M 814.00,113.00
           C 815.99,115.97 816.51,115.71 820.00,116.00
             820.00,116.00 816.00,122.00 816.00,122.00
             816.00,122.00 812.00,121.00 812.00,121.00
             812.00,121.00 815.00,118.00 815.00,118.00
             811.01,117.53 810.12,117.53 808.00,114.00
             808.00,114.00 813.00,117.00 813.00,117.00
             813.00,117.00 814.00,113.00 814.00,113.00 Z
           M 798.00,114.00
           C 798.00,114.00 798.00,115.00 798.00,115.00
             798.00,115.00 797.00,114.00 797.00,114.00
             797.00,114.00 798.00,114.00 798.00,114.00 Z
           M 802.00,114.00
           C 802.00,114.00 802.00,115.00 802.00,115.00
             802.00,115.00 801.00,114.00 801.00,114.00
             801.00,114.00 802.00,114.00 802.00,114.00 Z
           M 803.00,115.00
           C 803.00,115.00 803.00,116.00 803.00,116.00
             803.00,116.00 802.00,115.00 802.00,115.00
             802.00,115.00 803.00,115.00 803.00,115.00 Z
           M 804.00,117.00
           C 804.00,117.00 804.00,118.00 804.00,118.00
             804.00,118.00 803.00,117.00 803.00,117.00
             803.00,117.00 804.00,117.00 804.00,117.00 Z
           M 802.00,118.00
           C 802.00,118.00 802.00,119.00 802.00,119.00
             802.00,119.00 801.00,118.00 801.00,118.00
             801.00,118.00 802.00,118.00 802.00,118.00 Z
           M 807.00,118.00
           C 807.00,118.00 807.00,119.00 807.00,119.00
             807.00,119.00 806.00,118.00 806.00,118.00
             806.00,118.00 807.00,118.00 807.00,118.00 Z
           M 820.00,118.00
           C 820.00,118.00 820.00,119.00 820.00,119.00
             820.00,119.00 819.00,118.00 819.00,118.00
             819.00,118.00 820.00,118.00 820.00,118.00 Z
           M 828.00,119.00
           C 828.00,119.00 822.00,119.00 822.00,119.00
             822.00,119.00 828.00,119.00 828.00,119.00 Z
           M 829.00,118.00
           C 829.00,118.00 829.00,119.00 829.00,119.00
             829.00,119.00 828.00,118.00 828.00,118.00
             828.00,118.00 829.00,118.00 829.00,118.00 Z
           M 810.00,119.00
           C 810.00,119.00 810.00,120.00 810.00,120.00
             810.00,120.00 809.00,119.00 809.00,119.00
             809.00,119.00 810.00,119.00 810.00,119.00 Z
           M 830.00,119.00
           C 830.00,119.00 833.01,120.72 833.01,120.72
             833.01,120.72 834.00,137.00 834.00,137.00
             830.49,130.49 834.52,125.04 829.00,120.00
             829.00,120.00 830.00,119.00 830.00,119.00 Z
           M 798.00,120.00
           C 798.00,120.00 798.00,121.00 798.00,121.00
             798.00,121.00 797.00,120.00 797.00,120.00
             797.00,120.00 798.00,120.00 798.00,120.00 Z
           M 800.00,120.00
           C 800.00,120.00 800.00,121.00 800.00,121.00
             800.00,121.00 799.00,120.00 799.00,120.00
             799.00,120.00 800.00,120.00 800.00,120.00 Z
           M 818.00,120.00
           C 818.00,120.00 818.00,121.00 818.00,121.00
             818.00,121.00 817.00,120.00 817.00,120.00
             817.00,120.00 818.00,120.00 818.00,120.00 Z
           M 823.00,120.00
           C 823.00,120.00 823.00,121.00 823.00,121.00
             823.00,121.00 822.00,120.00 822.00,120.00
             822.00,120.00 823.00,120.00 823.00,120.00 Z
           M 825.00,120.00
           C 825.00,120.00 825.00,121.00 825.00,121.00
             825.00,121.00 824.00,120.00 824.00,120.00
             824.00,120.00 825.00,120.00 825.00,120.00 Z
           M 812.00,121.00
           C 812.00,121.00 812.00,122.00 812.00,122.00
             812.00,122.00 811.00,121.00 811.00,121.00
             811.00,121.00 812.00,121.00 812.00,121.00 Z
           M 822.00,121.00
           C 822.00,121.00 822.00,122.00 822.00,122.00
             822.00,122.00 821.00,121.00 821.00,121.00
             821.00,121.00 822.00,121.00 822.00,121.00 Z
           M 811.00,122.00
           C 811.00,122.00 811.00,123.00 811.00,123.00
             811.00,123.00 810.00,122.00 810.00,122.00
             810.00,122.00 811.00,122.00 811.00,122.00 Z
           M 831.00,122.00
           C 831.00,122.00 831.00,123.00 831.00,123.00
             831.00,123.00 830.00,122.00 830.00,122.00
             830.00,122.00 831.00,122.00 831.00,122.00 Z
           M 820.00,124.00
           C 820.00,124.00 818.00,129.00 818.00,129.00
             818.00,129.00 820.00,124.00 820.00,124.00 Z
           M 824.00,124.00
           C 824.00,124.00 824.00,125.00 824.00,125.00
             824.00,125.00 823.00,124.00 823.00,124.00
             823.00,124.00 824.00,124.00 824.00,124.00 Z
           M 826.00,124.00
           C 826.00,124.00 826.00,125.00 826.00,125.00
             826.00,125.00 825.00,124.00 825.00,124.00
             825.00,124.00 826.00,124.00 826.00,124.00 Z
           M 829.00,125.00
           C 829.00,125.00 828.00,131.00 828.00,131.00
             828.00,131.00 826.00,125.00 826.00,125.00
             826.00,125.00 829.00,125.00 829.00,125.00 Z
           M 796.00,127.00
           C 796.00,127.00 796.00,128.00 796.00,128.00
             796.00,128.00 795.00,127.00 795.00,127.00
             795.00,127.00 796.00,127.00 796.00,127.00 Z
           M 811.00,127.00
           C 811.00,127.00 811.00,128.00 811.00,128.00
             811.00,128.00 810.00,127.00 810.00,127.00
             810.00,127.00 811.00,127.00 811.00,127.00 Z
           M 821.00,127.00
           C 821.00,127.00 821.00,128.00 821.00,128.00
             821.00,128.00 820.00,127.00 820.00,127.00
             820.00,127.00 821.00,127.00 821.00,127.00 Z
           M 789.00,128.00
           C 789.00,128.00 789.00,129.00 789.00,129.00
             789.00,129.00 788.00,128.00 788.00,128.00
             788.00,128.00 789.00,128.00 789.00,128.00 Z
           M 814.00,128.00
           C 814.00,128.00 814.00,129.00 814.00,129.00
             814.00,129.00 813.00,128.00 813.00,128.00
             813.00,128.00 814.00,128.00 814.00,128.00 Z
           M 784.00,129.00
           C 784.00,129.00 784.00,130.00 784.00,130.00
             784.00,130.00 783.00,129.00 783.00,129.00
             783.00,129.00 784.00,129.00 784.00,129.00 Z
           M 804.00,129.00
           C 804.00,129.00 804.00,130.00 804.00,130.00
             804.00,130.00 803.00,129.00 803.00,129.00
             803.00,129.00 804.00,129.00 804.00,129.00 Z
           M 807.00,129.00
           C 807.00,129.00 807.00,130.00 807.00,130.00
             807.00,130.00 806.00,129.00 806.00,129.00
             806.00,129.00 807.00,129.00 807.00,129.00 Z
           M 809.00,129.00
           C 809.00,129.00 809.00,130.00 809.00,130.00
             809.00,130.00 808.00,129.00 808.00,129.00
             808.00,129.00 809.00,129.00 809.00,129.00 Z
           M 815.00,129.00
           C 815.00,129.00 816.00,132.00 816.00,132.00
             816.00,132.00 813.00,132.00 813.00,132.00
             813.00,132.00 815.00,129.00 815.00,129.00 Z
           M 832.00,129.00
           C 832.00,129.00 832.00,130.00 832.00,130.00
             832.00,130.00 831.00,129.00 831.00,129.00
             831.00,129.00 832.00,129.00 832.00,129.00 Z
           M 785.00,130.00
           C 785.00,130.00 785.00,131.00 785.00,131.00
             785.00,131.00 784.00,130.00 784.00,130.00
             784.00,130.00 785.00,130.00 785.00,130.00 Z
           M 790.00,130.00
           C 790.00,130.00 790.00,131.00 790.00,131.00
             790.00,131.00 789.00,130.00 789.00,130.00
             789.00,130.00 790.00,130.00 790.00,130.00 Z
           M 803.00,130.00
           C 803.00,130.00 803.00,131.00 803.00,131.00
             803.00,131.00 802.00,130.00 802.00,130.00
             802.00,130.00 803.00,130.00 803.00,130.00 Z
           M 805.00,130.00
           C 805.00,130.00 805.00,131.00 805.00,131.00
             805.00,131.00 804.00,130.00 804.00,130.00
             804.00,130.00 805.00,130.00 805.00,130.00 Z
           M 830.00,130.00
           C 830.00,130.00 830.00,131.00 830.00,131.00
             830.00,131.00 829.00,130.00 829.00,130.00
             829.00,130.00 830.00,130.00 830.00,130.00 Z
           M 783.00,131.00
           C 783.00,131.00 783.00,136.00 783.00,136.00
             783.00,136.00 787.00,134.00 787.00,134.00
             787.00,134.00 786.00,137.00 786.00,137.00
             786.00,137.00 789.00,135.00 789.00,135.00
             791.95,136.40 802.46,138.38 804.00,135.00
             804.00,135.00 806.00,137.00 806.00,137.00
             806.00,137.00 811.00,134.00 811.00,134.00
             811.00,134.00 813.29,136.54 813.29,136.54
             813.29,136.54 826.79,136.54 826.79,136.54
             826.79,136.54 829.00,135.00 829.00,135.00
             829.00,135.00 833.00,137.00 833.00,137.00
             828.19,138.91 809.40,137.94 803.00,138.05
             803.00,138.05 784.28,138.05 784.28,138.05
             780.96,136.87 781.74,133.38 783.00,131.00 Z
           M 789.00,131.00
           C 789.00,131.00 789.00,132.00 789.00,132.00
             789.00,132.00 788.00,131.00 788.00,131.00
             788.00,131.00 789.00,131.00 789.00,131.00 Z
           M 791.00,131.00
           C 791.00,131.00 791.00,132.00 791.00,132.00
             791.00,132.00 790.00,131.00 790.00,131.00
             790.00,131.00 791.00,131.00 791.00,131.00 Z
           M 832.00,131.00
           C 832.00,131.00 832.00,132.00 832.00,132.00
             832.00,132.00 831.00,131.00 831.00,131.00
             831.00,131.00 832.00,131.00 832.00,131.00 Z
           M 825.00,132.00
           C 825.00,132.00 827.00,135.00 827.00,135.00
             827.00,135.00 824.00,133.00 824.00,133.00
             824.00,133.00 825.00,132.00 825.00,132.00 Z
           M 788.00,133.00
           C 788.00,133.00 788.00,134.00 788.00,134.00
             788.00,134.00 787.00,133.00 787.00,133.00
             787.00,133.00 788.00,133.00 788.00,133.00 Z
           M 793.00,133.00
           C 793.00,133.00 793.00,134.00 793.00,134.00
             793.00,134.00 792.00,133.00 792.00,133.00
             792.00,133.00 793.00,133.00 793.00,133.00 Z
           M 813.00,133.00
           C 813.00,133.00 813.00,134.00 813.00,134.00
             813.00,134.00 812.00,133.00 812.00,133.00
             812.00,133.00 813.00,133.00 813.00,133.00 Z
           M 818.00,133.00
           C 818.00,133.00 818.00,134.00 818.00,134.00
             818.00,134.00 817.00,133.00 817.00,133.00
             817.00,133.00 818.00,133.00 818.00,133.00 Z
           M 829.00,134.00
           C 829.00,134.00 829.00,135.00 829.00,135.00
             829.00,135.00 828.00,134.00 828.00,134.00
             828.00,134.00 829.00,134.00 829.00,134.00 Z
           M 815.00,135.00
           C 815.00,135.00 815.00,136.00 815.00,136.00
             815.00,136.00 814.00,135.00 814.00,135.00
             814.00,135.00 815.00,135.00 815.00,135.00 Z
           M 826.00,135.00
           C 826.00,135.00 826.00,136.00 826.00,136.00
             826.00,136.00 825.00,135.00 825.00,135.00
             825.00,135.00 826.00,135.00 826.00,135.00 Z
           M 834.00,141.00
           C 834.00,141.00 834.00,155.00 834.00,155.00
             834.00,155.00 833.00,142.00 833.00,142.00
             824.78,143.82 821.65,139.84 816.00,144.00
             816.00,144.00 814.00,144.00 814.00,144.00
             811.07,142.20 800.89,142.01 797.01,142.03
             794.66,142.04 793.01,141.77 792.00,144.00
             792.00,144.00 782.00,142.00 782.00,142.00
             782.00,142.00 799.00,141.00 799.00,141.00
             799.00,141.00 834.00,141.00 834.00,141.00 Z
           M 782.00,142.00
           C 782.00,142.00 782.00,143.00 782.00,143.00
             782.00,143.00 781.00,142.00 781.00,142.00
             781.00,142.00 782.00,142.00 782.00,142.00 Z
           M 808.00,143.00
           C 808.00,143.00 808.00,144.00 808.00,144.00
             808.00,144.00 807.00,143.00 807.00,143.00
             807.00,143.00 808.00,143.00 808.00,143.00 Z
           M 801.00,144.00
           C 801.00,144.00 804.00,147.00 804.00,147.00
             804.00,147.00 800.00,145.00 800.00,145.00
             800.00,145.00 801.00,144.00 801.00,144.00 Z
           M 806.00,144.00
           C 806.00,144.00 806.00,145.00 806.00,145.00
             806.00,145.00 805.00,144.00 805.00,144.00
             805.00,144.00 806.00,144.00 806.00,144.00 Z
           M 826.00,144.00
           C 826.00,144.00 830.00,147.00 830.00,147.00
             830.00,147.00 825.00,145.00 825.00,145.00
             825.00,145.00 826.00,144.00 826.00,144.00 Z
           M 831.00,144.00
           C 831.00,144.00 831.00,145.00 831.00,145.00
             831.00,145.00 830.00,144.00 830.00,144.00
             830.00,144.00 831.00,144.00 831.00,144.00 Z
           M 785.00,145.00
           C 785.00,145.00 785.00,146.00 785.00,146.00
             785.00,146.00 784.00,145.00 784.00,145.00
             784.00,145.00 785.00,145.00 785.00,145.00 Z
           M 794.00,145.00
           C 794.00,145.00 794.00,146.00 794.00,146.00
             794.00,146.00 793.00,145.00 793.00,145.00
             793.00,145.00 794.00,145.00 794.00,145.00 Z
           M 810.00,145.00
           C 810.00,145.00 810.00,146.00 810.00,146.00
             810.00,146.00 809.00,145.00 809.00,145.00
             809.00,145.00 810.00,145.00 810.00,145.00 Z
           M 814.00,145.00
           C 814.00,145.00 814.00,146.00 814.00,146.00
             814.00,146.00 813.00,145.00 813.00,145.00
             813.00,145.00 814.00,145.00 814.00,145.00 Z
           M 819.00,145.00
           C 819.00,145.00 819.00,146.00 819.00,146.00
             819.00,146.00 818.00,145.00 818.00,145.00
             818.00,145.00 819.00,145.00 819.00,145.00 Z
           M 787.00,146.00
           C 787.00,146.00 787.00,147.00 787.00,147.00
             787.00,147.00 786.00,146.00 786.00,146.00
             786.00,146.00 787.00,146.00 787.00,146.00 Z
           M 809.00,146.00
           C 809.00,146.00 809.00,147.00 809.00,147.00
             809.00,147.00 808.00,146.00 808.00,146.00
             808.00,146.00 809.00,146.00 809.00,146.00 Z
           M 812.00,146.00
           C 812.00,146.00 812.00,147.00 812.00,147.00
             812.00,147.00 811.00,146.00 811.00,146.00
             811.00,146.00 812.00,146.00 812.00,146.00 Z
           M 782.00,147.00
           C 782.05,152.49 781.91,153.36 785.00,158.00
             785.00,158.00 782.00,161.00 782.00,161.00
             780.63,157.27 780.55,150.67 782.00,147.00 Z
           M 787.00,148.00
           C 787.00,148.00 783.00,150.00 783.00,150.00
             783.00,150.00 787.00,148.00 787.00,148.00 Z
           M 791.00,147.00
           C 791.00,147.00 791.00,148.00 791.00,148.00
             791.00,148.00 790.00,147.00 790.00,147.00
             790.00,147.00 791.00,147.00 791.00,147.00 Z
           M 811.00,147.00
           C 811.00,147.00 811.00,148.00 811.00,148.00
             811.00,148.00 810.00,147.00 810.00,147.00
             810.00,147.00 811.00,147.00 811.00,147.00 Z
           M 816.00,147.00
           C 816.00,147.00 816.00,148.00 816.00,148.00
             816.00,148.00 815.00,147.00 815.00,147.00
             815.00,147.00 816.00,147.00 816.00,147.00 Z
           M 821.00,147.00
           C 821.00,147.00 821.00,148.00 821.00,148.00
             821.00,148.00 820.00,147.00 820.00,147.00
             820.00,147.00 821.00,147.00 821.00,147.00 Z
           M 827.00,147.00
           C 827.00,147.00 827.00,148.00 827.00,148.00
             827.00,148.00 826.00,147.00 826.00,147.00
             826.00,147.00 827.00,147.00 827.00,147.00 Z
           M 790.00,148.00
           C 790.00,148.00 790.00,149.00 790.00,149.00
             790.00,149.00 789.00,148.00 789.00,148.00
             789.00,148.00 790.00,148.00 790.00,148.00 Z
           M 799.00,148.00
           C 799.00,148.00 799.00,149.00 799.00,149.00
             799.00,149.00 798.00,148.00 798.00,148.00
             798.00,148.00 799.00,148.00 799.00,148.00 Z
           M 812.00,148.00
           C 812.00,148.00 812.00,149.00 812.00,149.00
             812.00,149.00 811.00,148.00 811.00,148.00
             811.00,148.00 812.00,148.00 812.00,148.00 Z
           M 815.00,148.00
           C 815.00,148.00 815.00,149.00 815.00,149.00
             815.00,149.00 814.00,148.00 814.00,148.00
             814.00,148.00 815.00,148.00 815.00,148.00 Z
           M 824.00,148.00
           C 824.00,148.00 827.00,149.00 827.00,149.00
             827.00,149.00 823.00,152.00 823.00,152.00
             823.00,152.00 824.00,148.00 824.00,148.00 Z
           M 791.00,149.00
           C 791.00,149.00 791.00,150.00 791.00,150.00
             791.00,150.00 790.00,149.00 790.00,149.00
             790.00,149.00 791.00,149.00 791.00,149.00 Z
           M 793.00,149.00
           C 793.00,149.00 793.00,150.00 793.00,150.00
             793.00,150.00 792.00,149.00 792.00,149.00
             792.00,149.00 793.00,149.00 793.00,149.00 Z
           M 804.00,149.00
           C 804.00,149.00 804.00,150.00 804.00,150.00
             804.00,150.00 803.00,149.00 803.00,149.00
             803.00,149.00 804.00,149.00 804.00,149.00 Z
           M 814.00,149.00
           C 814.00,149.00 815.00,153.00 815.00,153.00
             813.17,151.37 813.24,151.34 814.00,149.00 Z
           M 816.00,149.00
           C 816.00,149.00 816.00,150.00 816.00,150.00
             816.00,150.00 815.00,149.00 815.00,149.00
             815.00,149.00 816.00,149.00 816.00,149.00 Z
           M 829.00,149.00
           C 829.00,149.00 829.00,150.00 829.00,150.00
             829.00,150.00 828.00,149.00 828.00,149.00
             828.00,149.00 829.00,149.00 829.00,149.00 Z
           M 797.00,150.00
           C 797.00,150.00 797.00,151.00 797.00,151.00
             797.00,151.00 796.00,150.00 796.00,150.00
             796.00,150.00 797.00,150.00 797.00,150.00 Z
           M 805.00,150.00
           C 805.00,150.00 805.00,151.00 805.00,151.00
             805.00,151.00 804.00,150.00 804.00,150.00
             804.00,150.00 805.00,150.00 805.00,150.00 Z
           M 811.00,150.00
           C 811.00,150.00 811.00,151.00 811.00,151.00
             811.00,151.00 810.00,150.00 810.00,150.00
             810.00,150.00 811.00,150.00 811.00,150.00 Z
           M 822.00,150.00
           C 822.00,150.00 822.00,151.00 822.00,151.00
             822.00,151.00 821.00,150.00 821.00,150.00
             821.00,150.00 822.00,150.00 822.00,150.00 Z
           M 790.00,151.00
           C 790.00,151.00 791.00,154.00 791.00,154.00
             789.22,152.69 789.14,153.05 790.00,151.00 Z
           M 799.00,151.00
           C 799.00,151.00 799.00,152.00 799.00,152.00
             799.00,152.00 798.00,151.00 798.00,151.00
             798.00,151.00 799.00,151.00 799.00,151.00 Z
           M 803.00,151.00
           C 803.00,151.00 803.00,152.00 803.00,152.00
             803.00,152.00 802.00,151.00 802.00,151.00
             802.00,151.00 803.00,151.00 803.00,151.00 Z
           M 828.00,151.00
           C 828.00,151.00 828.00,152.00 828.00,152.00
             828.00,152.00 827.00,151.00 827.00,151.00
             827.00,151.00 828.00,151.00 828.00,151.00 Z
           M 804.00,152.00
           C 804.00,152.00 807.00,153.00 807.00,153.00
             807.00,153.00 806.00,156.00 806.00,156.00
             806.00,156.00 802.00,156.00 802.00,156.00
             802.00,156.00 804.00,152.00 804.00,152.00 Z
           M 829.00,152.00
           C 829.00,152.00 832.00,153.00 832.00,153.00
             832.00,153.00 831.00,156.00 831.00,156.00
             831.00,156.00 827.00,156.00 827.00,156.00
             827.00,156.00 829.00,152.00 829.00,152.00 Z
           M 786.00,153.00
           C 786.00,153.00 786.00,154.00 786.00,154.00
             786.00,154.00 785.00,153.00 785.00,153.00
             785.00,153.00 786.00,153.00 786.00,153.00 Z
           M 811.00,153.00
           C 811.00,153.00 815.00,155.00 815.00,155.00
             815.00,155.00 807.00,156.00 807.00,156.00
             807.00,156.00 811.00,153.00 811.00,153.00 Z
           M 816.00,153.00
           C 816.00,153.00 820.00,155.00 820.00,155.00
             817.66,155.71 816.03,155.93 816.00,153.00 Z
           M 792.00,154.00
           C 792.00,154.00 795.00,155.00 795.00,155.00
             795.00,155.00 793.00,163.00 793.00,163.00
             793.00,163.00 789.00,161.00 789.00,161.00
             789.00,161.00 792.00,162.00 792.00,162.00
             792.00,162.00 792.00,158.00 792.00,158.00
             792.00,158.00 791.00,159.00 791.00,159.00
             791.00,159.00 789.00,158.00 789.00,158.00
             789.00,158.00 792.00,154.00 792.00,154.00 Z
           M 802.00,154.00
           C 802.00,154.00 795.00,155.00 795.00,155.00
             795.00,155.00 802.00,154.00 802.00,154.00 Z
           M 827.00,154.00
           C 827.00,154.00 820.00,155.00 820.00,155.00
             820.00,155.00 827.00,154.00 827.00,154.00 Z
           M 833.00,155.00
           C 833.00,155.00 833.00,156.00 833.00,156.00
             833.00,156.00 832.00,155.00 832.00,155.00
             832.00,155.00 833.00,155.00 833.00,155.00 Z
           M 786.00,156.00
           C 786.00,156.00 786.00,157.00 786.00,157.00
             786.00,157.00 785.00,156.00 785.00,156.00
             785.00,156.00 786.00,156.00 786.00,156.00 Z
           M 788.00,158.00
           C 788.00,158.00 788.00,159.00 788.00,159.00
             788.00,159.00 787.00,158.00 787.00,158.00
             787.00,158.00 788.00,158.00 788.00,158.00 Z
           M 787.00,159.00
           C 787.00,159.00 787.00,160.00 787.00,160.00
             787.00,160.00 786.00,159.00 786.00,159.00
             786.00,159.00 787.00,159.00 787.00,159.00 Z
           M 785.00,160.00
           C 784.15,162.20 783.84,163.09 782.00,161.00
             782.00,161.00 785.00,160.00 785.00,160.00 Z" />
</svg>
