<?xml version="1.0" encoding="UTF-8" standalone="no"?>
<!DOCTYPE svg PUBLIC "-//W3C//DTD SVG 20010904//EN"
              "http://www.w3.org/TR/2001/REC-SVG-20010904/DTD/svg10.dtd">

<svg xmlns="http://www.w3.org/2000/svg"
     width="17.9167in" height="6.94444in"
     viewBox="0 0 1290 500">
  <path id="Selection"
        fill="none" stroke="black" stroke-width="1"
        d="M 757.00,25.00
           C 757.00,25.00 757.00,34.00 757.00,34.00
             757.00,34.00 756.00,50.00 756.00,50.00
             756.00,50.00 755.00,131.00 755.00,131.00
             755.00,131.00 754.00,147.00 754.00,147.00
             754.00,147.00 754.00,168.00 754.00,168.00
             754.00,168.00 777.00,167.00 777.00,167.00
             777.00,167.00 834.00,165.00 834.00,165.00
             834.00,165.00 849.00,164.00 849.00,164.00
             849.00,164.00 849.00,87.00 849.00,87.00
             849.00,87.00 848.00,70.00 848.00,70.00
             848.00,70.00 848.00,24.00 848.00,24.00
             848.00,24.00 799.00,24.00 799.00,24.00
             799.00,24.00 782.00,25.00 782.00,25.00
             782.00,25.00 757.00,25.00 757.00,25.00 Z" />
</svg>
