<?xml version="1.0" encoding="UTF-8" standalone="no"?>
<!DOCTYPE svg PUBLIC "-//W3C//DTD SVG 20010904//EN"
              "http://www.w3.org/TR/2001/REC-SVG-20010904/DTD/svg10.dtd">

<svg xmlns="http://www.w3.org/2000/svg"
     width="17.9167in" height="6.94444in"
     viewBox="0 0 1290 500">
  <path id="Selection"
        fill="none" stroke="black" stroke-width="1"
        d="M 536.00,62.00
           C 536.00,62.00 536.00,85.00 536.00,85.00
             536.00,85.00 535.00,101.00 535.00,101.00
             535.00,101.00 535.00,139.00 535.00,139.00
             535.00,139.00 599.00,139.00 599.00,139.00
             599.00,139.00 614.00,140.00 614.00,140.00
             614.00,140.00 716.00,140.00 716.00,140.00
             716.00,140.00 716.00,103.00 716.00,103.00
             716.00,103.00 715.00,86.00 715.00,86.00
             715.00,86.00 715.00,64.00 715.00,64.00
             715.00,64.00 688.00,64.00 688.00,64.00
             688.00,64.00 673.00,63.00 673.00,63.00
             673.00,63.00 597.00,63.00 597.00,63.00
             597.00,63.00 580.00,62.00 580.00,62.00
             580.00,62.00 545.00,62.00 545.00,62.00
             545.00,62.00 545.00,66.00 545.00,66.00
             545.00,66.00 541.00,66.00 541.00,66.00
             541.00,66.00 541.00,62.00 541.00,62.00
             541.00,62.00 536.00,62.00 536.00,62.00 Z" />
</svg>
