<?xml version="1.0" encoding="UTF-8" standalone="no"?>
<!DOCTYPE svg PUBLIC "-//W3C//DTD SVG 20010904//EN"
              "http://www.w3.org/TR/2001/REC-SVG-20010904/DTD/svg10.dtd">

<svg xmlns="http://www.w3.org/2000/svg"
     width="17.9167in" height="6.94444in"
     viewBox="0 0 1290 500">
  <path id="Selection #1"
        fill="none" stroke="black" stroke-width="1"
        d="M 627.00,106.00
           C 627.00,106.00 626.00,109.00 626.00,109.00
             630.47,110.05 635.51,109.32 636.67,103.98
             639.33,91.66 615.04,97.90 617.19,86.00
             618.44,79.08 628.42,72.47 635.00,71.33
             641.36,70.22 646.58,71.47 644.00,79.00
             649.53,75.88 648.99,69.67 642.96,67.82
             632.60,64.63 612.49,76.92 614.38,89.00
             616.08,99.88 629.98,96.45 633.26,101.40
             636.12,105.72 629.64,106.34 627.00,106.00 Z
           M 564.00,76.00
           C 564.00,76.00 569.00,76.00 569.00,76.00
             567.18,83.49 568.89,92.68 566.98,95.77
             563.99,100.59 555.34,98.27 554.24,91.00
             553.11,83.56 559.58,81.24 563.00,76.00
             550.08,81.23 549.58,93.69 555.79,98.80
             559.38,101.75 563.87,100.17 565.56,103.03
             567.06,105.58 563.94,111.38 563.00,114.00
             568.30,108.96 569.65,96.21 569.96,89.00
             570.10,85.79 569.78,82.14 570.48,79.02
             571.94,72.52 574.86,74.91 577.00,68.00
             571.72,68.63 568.12,72.85 564.00,76.00 Z
           M 574.00,70.00
           C 574.00,70.00 574.00,71.00 574.00,71.00
             574.00,71.00 573.00,70.00 573.00,70.00
             573.00,70.00 574.00,70.00 574.00,70.00 Z
           M 688.00,80.00
           C 685.22,85.89 684.32,85.92 678.00,86.00
             680.31,89.31 682.20,88.90 686.00,89.00
             686.00,89.00 685.00,98.00 685.00,98.00
             679.92,95.91 678.87,97.59 675.00,101.00
             675.00,101.00 675.00,91.00 675.00,91.00
             675.00,91.00 670.00,105.00 670.00,105.00
             667.45,100.92 667.78,100.67 668.00,96.00
             668.00,96.00 665.00,96.00 665.00,96.00
             664.70,101.12 664.49,102.27 660.00,105.00
             659.99,96.66 660.41,95.84 652.00,93.00
             651.97,95.60 652.12,98.60 650.83,100.94
             647.84,106.36 642.63,103.98 644.17,100.09
             644.77,98.57 645.88,97.97 647.00,97.00
             647.00,97.00 648.00,100.00 648.00,100.00
             651.74,94.80 646.66,93.29 643.22,96.33
             636.82,102.00 642.33,110.37 648.96,106.97
             653.75,104.52 652.28,100.52 658.00,99.00
             656.21,105.60 657.38,107.33 664.00,107.12
             668.18,106.99 667.79,107.51 672.00,106.00
             668.92,113.95 666.40,121.45 665.48,130.00
             665.19,132.63 665.63,137.52 668.41,138.83
             673.05,141.02 674.60,132.80 675.08,130.00
             675.98,124.70 676.28,119.37 675.89,114.00
             675.71,111.01 674.72,107.93 675.89,105.02
             677.00,102.17 678.46,101.32 681.00,100.00
             681.00,100.00 677.00,108.00 677.00,108.00
             677.00,108.00 686.00,100.00 686.00,100.00
             686.69,108.56 692.14,109.88 696.00,102.00
             684.07,106.49 690.03,95.25 691.00,89.00
             691.00,89.00 699.00,89.00 699.00,89.00
             699.00,89.00 699.00,86.00 699.00,86.00
             699.00,86.00 691.00,86.00 691.00,86.00
             691.00,86.00 690.00,80.00 690.00,80.00
             690.00,80.00 688.00,80.00 688.00,80.00 Z
           M 689.00,85.00
           C 689.00,85.00 689.00,86.00 689.00,86.00
             689.00,86.00 688.00,85.00 688.00,85.00
             688.00,85.00 689.00,85.00 689.00,85.00 Z
           M 666.00,89.00
           C 666.00,89.00 665.00,90.00 665.00,90.00
             665.00,90.00 666.00,93.00 666.00,93.00
             666.00,93.00 668.00,93.00 668.00,93.00
             668.00,93.00 669.00,90.00 669.00,90.00
             669.00,90.00 666.00,89.00 666.00,89.00 Z
           M 573.00,94.00
           C 573.00,94.00 570.00,98.00 570.00,98.00
             572.36,96.70 572.96,96.79 573.00,94.00 Z
           M 587.00,105.00
           C 587.00,105.00 589.00,107.00 589.00,107.00
             589.00,107.00 590.00,107.00 590.00,107.00
             590.00,107.00 590.00,105.00 590.00,105.00
             595.45,106.83 595.57,103.64 596.00,99.00
             596.00,99.00 601.00,107.00 601.00,107.00
             602.97,101.29 601.71,99.16 608.00,96.00
             608.00,96.00 603.00,107.00 603.00,107.00
             607.37,106.77 611.31,107.85 614.00,104.00
             614.00,104.00 609.00,105.00 609.00,105.00
             609.00,105.00 611.00,96.00 611.00,96.00
             604.86,94.41 603.43,96.41 598.00,99.00
             598.00,99.00 598.00,95.00 598.00,95.00
             598.00,95.00 594.00,96.00 594.00,96.00
             594.58,100.80 594.65,101.65 591.00,105.00
             591.00,105.00 590.00,96.00 590.00,96.00
             590.00,96.00 589.00,105.00 589.00,105.00
             589.00,105.00 582.00,104.00 582.00,104.00
             582.00,104.00 583.00,95.00 583.00,95.00
             581.17,95.21 579.74,95.25 578.06,96.17
             573.43,98.71 573.30,104.08 576.31,105.90
             579.08,107.58 584.47,106.61 587.00,105.00 Z
           M 582.00,96.00
           C 582.00,96.00 582.00,104.00 582.00,104.00
             582.00,104.00 576.00,105.00 576.00,105.00
             576.30,99.88 576.71,97.50 582.00,96.00 Z
           M 610.00,96.00
           C 610.00,96.00 610.00,97.00 610.00,97.00
             610.00,97.00 609.00,96.00 609.00,96.00
             609.00,96.00 610.00,96.00 610.00,96.00 Z
           M 596.00,97.00
           C 596.00,97.00 596.00,98.00 596.00,98.00
             596.00,98.00 595.00,97.00 595.00,97.00
             595.00,97.00 596.00,97.00 596.00,97.00 Z
           M 601.00,103.00
           C 601.00,103.00 601.00,104.00 601.00,104.00
             601.00,104.00 600.00,103.00 600.00,103.00
             600.00,103.00 601.00,103.00 601.00,103.00 Z
           M 583.00,105.00
           C 583.00,105.00 583.00,106.00 583.00,106.00
             583.00,106.00 582.00,105.00 582.00,105.00
             582.00,105.00 583.00,105.00 583.00,105.00 Z
           M 553.00,109.00
           C 552.92,115.47 557.34,118.21 563.00,115.00
             558.60,113.91 555.13,114.44 555.00,109.00
             555.00,109.00 553.00,109.00 553.00,109.00 Z
           M 673.00,114.00
           C 673.00,120.17 674.19,132.97 669.00,137.00
             669.00,127.18 668.41,123.78 671.00,114.00
             671.00,114.00 673.00,114.00 673.00,114.00 Z" />
</svg>
