<?xml version="1.0" encoding="UTF-8" standalone="no"?>
<!DOCTYPE svg PUBLIC "-//W3C//DTD SVG 20010904//EN"
              "http://www.w3.org/TR/2001/REC-SVG-20010904/DTD/svg10.dtd">

<svg xmlns="http://www.w3.org/2000/svg"
     width="17.9167in" height="6.94444in"
     viewBox="0 0 1290 500">
  <path id="Selection"
        fill="none" stroke="black" stroke-width="1"
        d="M 890.00,19.00
           C 890.00,19.00 890.00,64.00 890.00,64.00
             890.00,64.00 936.00,68.83 936.00,68.83
             936.00,68.83 997.00,75.17 997.00,75.17
             997.00,75.17 1032.00,79.00 1032.00,79.00
             1032.00,79.00 1034.09,52.00 1034.09,52.00
             1034.09,52.00 1036.00,27.00 1036.00,27.00
             1036.00,27.00 1025.00,25.96 1025.00,25.96
             1025.00,25.96 1017.00,25.96 1017.00,25.96
             1017.00,25.96 1003.00,25.00 1003.00,25.00
             1003.00,25.00 991.00,24.00 991.00,24.00
             991.00,24.00 979.00,24.00 979.00,24.00
             979.00,24.00 969.00,23.00 969.00,23.00
             969.00,23.00 928.00,21.00 928.00,21.00
             928.00,21.00 912.00,20.00 912.00,20.00
             912.00,20.00 890.00,19.00 890.00,19.00 Z" />
</svg>
