<?xml version="1.0" encoding="UTF-8" standalone="no"?>
<!DOCTYPE svg PUBLIC "-//W3C//DTD SVG 20010904//EN"
              "http://www.w3.org/TR/2001/REC-SVG-20010904/DTD/svg10.dtd">

<svg xmlns="http://www.w3.org/2000/svg"
     width="17.9167in" height="6.94444in"
     viewBox="0 0 1290 500">
  <path id="Selection #1"
        fill="none" stroke="black" stroke-width="1"
        d="M 899.00,39.00
           C 894.83,36.73 894.75,35.53 895.00,31.00
             897.06,31.34 898.88,31.42 900.23,33.31
             902.53,36.53 900.00,50.04 899.00,54.00
             900.91,54.24 901.91,54.70 903.69,53.36
             907.32,50.63 907.99,37.48 908.00,33.00
             912.33,38.36 909.06,49.35 909.00,56.00
             921.27,52.87 913.58,39.35 918.96,32.00
             918.96,32.00 918.96,46.00 918.96,46.00
             918.69,49.01 917.28,53.45 917.74,56.00
             918.77,61.61 925.06,64.66 929.00,57.00
             925.53,55.10 925.51,54.60 924.00,51.00
             925.30,52.40 926.47,53.87 928.18,54.83
             931.24,56.54 943.86,58.30 946.69,56.10
             949.66,53.78 950.20,48.45 950.00,45.00
             950.00,45.00 952.00,53.00 952.00,53.00
             952.00,53.00 951.00,51.00 951.00,51.00
             951.00,51.00 949.01,55.85 949.01,55.85
             948.04,57.59 944.20,61.19 946.65,63.18
             949.01,65.09 952.36,61.02 954.28,60.01
             956.95,58.60 961.93,59.00 965.00,59.00
             965.00,59.00 960.00,65.00 960.00,65.00
             966.00,72.69 970.49,69.73 971.00,61.00
             971.00,61.00 992.00,63.19 992.00,63.19
             992.00,63.19 1005.00,64.79 1005.00,64.79
             1005.00,64.79 1012.00,62.00 1012.00,62.00
             1017.62,73.03 1033.09,66.05 1034.51,59.00
             1034.88,57.20 1033.21,45.81 1032.11,44.39
             1029.26,40.73 1027.32,42.95 1023.00,36.00
             1012.22,42.01 1022.85,43.56 1016.00,51.00
             1014.98,43.68 1011.65,41.83 1006.17,37.55
             1004.04,35.88 1001.05,33.11 998.70,36.33
             996.78,38.97 999.23,41.75 999.69,45.00
             1000.90,53.47 997.24,56.46 990.00,59.00
             990.00,59.00 990.00,52.00 990.00,52.00
             990.00,52.00 991.00,54.00 991.00,54.00
             992.56,49.88 991.77,48.13 988.00,46.00
             988.00,46.00 988.00,44.00 988.00,44.00
             988.00,44.00 992.00,42.00 992.00,42.00
             988.75,36.28 983.04,37.14 978.00,40.00
             980.34,44.12 981.58,43.56 986.00,44.00
             986.00,44.00 978.04,49.38 978.04,49.38
             978.04,49.38 972.00,55.00 972.00,55.00
             972.48,49.82 974.23,46.67 974.22,45.01
             974.20,42.30 969.71,36.41 966.87,36.29
             965.32,36.22 963.37,37.35 962.00,38.00
             962.00,38.00 965.00,43.00 965.00,43.00
             961.10,44.39 960.23,44.75 960.00,49.00
             960.00,49.00 958.00,48.00 958.00,48.00
             958.00,48.00 959.00,51.00 959.00,51.00
             955.18,45.83 958.52,40.25 950.00,42.00
             950.00,42.00 950.00,40.00 950.00,40.00
             942.71,43.44 945.05,45.31 943.00,52.00
             942.68,48.94 943.54,43.73 941.40,41.60
             938.25,38.45 926.31,40.20 927.00,51.00
             924.14,44.60 927.73,35.86 924.83,31.28
             922.46,27.54 918.99,29.17 915.57,28.49
             909.35,27.25 911.45,28.13 907.42,27.64
             907.42,27.64 901.99,26.26 901.99,26.26
             896.93,25.77 890.87,29.64 889.49,34.58
             886.94,43.72 895.94,48.06 899.00,39.00 Z
           M 901.00,27.00
           C 901.00,27.00 901.00,28.00 901.00,28.00
             901.00,28.00 900.00,27.00 900.00,27.00
             900.00,27.00 901.00,27.00 901.00,27.00 Z
           M 899.00,29.00
           C 899.00,29.00 899.00,30.00 899.00,30.00
             899.00,30.00 898.00,29.00 898.00,29.00
             898.00,29.00 899.00,29.00 899.00,29.00 Z
           M 914.00,29.00
           C 917.57,41.43 913.98,43.15 913.00,54.00
             913.00,54.00 910.00,53.00 910.00,53.00
             910.00,53.00 912.84,39.00 912.84,39.00
             912.84,39.00 912.00,32.00 912.00,32.00
             912.00,32.00 911.00,31.00 911.00,31.00
             911.00,31.00 910.00,32.00 910.00,32.00
             910.00,32.00 908.00,31.00 908.00,31.00
             908.00,31.00 914.00,29.00 914.00,29.00 Z
           M 901.00,30.00
           C 901.00,30.00 901.00,31.00 901.00,31.00
             901.00,31.00 900.00,30.00 900.00,30.00
             900.00,30.00 901.00,30.00 901.00,30.00 Z
           M 919.00,30.00
           C 919.00,30.00 919.00,31.00 919.00,31.00
             919.00,31.00 918.00,30.00 918.00,30.00
             918.00,30.00 919.00,30.00 919.00,30.00 Z
           M 908.00,31.00
           C 908.00,31.00 908.00,32.00 908.00,32.00
             908.00,32.00 907.00,31.00 907.00,31.00
             907.00,31.00 908.00,31.00 908.00,31.00 Z
           M 917.00,31.00
           C 917.00,31.00 917.00,32.00 917.00,32.00
             917.00,32.00 916.00,31.00 916.00,31.00
             916.00,31.00 917.00,31.00 917.00,31.00 Z
           M 925.00,32.00
           C 925.00,32.00 925.00,41.00 925.00,41.00
             923.69,37.70 923.69,35.30 925.00,32.00 Z
           M 934.00,31.00
           C 933.20,31.80 932.27,32.50 931.65,33.26
             926.50,41.35 947.88,38.47 940.63,33.26
             939.90,32.51 938.83,32.33 937.98,32.09
             937.98,32.09 934.00,31.00 934.00,31.00 Z
           M 920.00,33.00
           C 920.00,33.00 920.00,34.00 920.00,34.00
             920.00,34.00 919.00,33.00 919.00,33.00
             919.00,33.00 920.00,33.00 920.00,33.00 Z
           M 934.00,33.00
           C 934.00,33.00 934.00,34.00 934.00,34.00
             934.00,34.00 933.00,33.00 933.00,33.00
             933.00,33.00 934.00,33.00 934.00,33.00 Z
           M 936.00,33.00
           C 936.00,33.00 936.00,34.00 936.00,34.00
             936.00,34.00 935.00,33.00 935.00,33.00
             935.00,33.00 936.00,33.00 936.00,33.00 Z
           M 921.00,34.00
           C 921.00,34.00 921.00,35.00 921.00,35.00
             921.00,35.00 920.00,34.00 920.00,34.00
             920.00,34.00 921.00,34.00 921.00,34.00 Z
           M 937.00,36.00
           C 937.00,36.00 937.00,37.00 937.00,37.00
             937.00,37.00 936.00,36.00 936.00,36.00
             936.00,36.00 937.00,36.00 937.00,36.00 Z
           M 968.00,36.00
           C 968.00,36.00 968.00,37.00 968.00,37.00
             968.00,37.00 967.00,36.00 967.00,36.00
             967.00,36.00 968.00,36.00 968.00,36.00 Z
           M 1001.00,36.00
           C 1001.00,36.00 1001.00,37.00 1001.00,37.00
             1001.00,37.00 1000.00,36.00 1000.00,36.00
             1000.00,36.00 1001.00,36.00 1001.00,36.00 Z
           M 966.00,37.00
           C 966.00,37.00 966.00,38.00 966.00,38.00
             966.00,38.00 965.00,37.00 965.00,37.00
             965.00,37.00 966.00,37.00 966.00,37.00 Z
           M 969.00,37.00
           C 969.00,37.00 969.00,38.00 969.00,38.00
             969.00,38.00 968.00,37.00 968.00,37.00
             968.00,37.00 969.00,37.00 969.00,37.00 Z
           M 1004.00,37.00
           C 1004.00,37.00 1004.00,38.00 1004.00,38.00
             1004.00,38.00 1003.00,37.00 1003.00,37.00
             1003.00,37.00 1004.00,37.00 1004.00,37.00 Z
           M 895.00,38.00
           C 895.00,38.00 895.00,39.00 895.00,39.00
             895.00,39.00 894.00,38.00 894.00,38.00
             894.00,38.00 895.00,38.00 895.00,38.00 Z
           M 965.00,38.00
           C 965.00,38.00 965.00,39.00 965.00,39.00
             965.00,39.00 964.00,38.00 964.00,38.00
             964.00,38.00 965.00,38.00 965.00,38.00 Z
           M 989.00,39.00
           C 989.00,39.00 990.00,40.00 990.00,40.00
             990.00,40.00 990.00,42.00 990.00,42.00
             990.00,42.00 981.00,43.00 981.00,43.00
             981.00,43.00 980.00,42.00 980.00,42.00
             980.00,42.00 980.00,40.00 980.00,40.00
             980.00,40.00 989.00,39.00 989.00,39.00 Z
           M 999.00,38.00
           C 999.00,38.00 999.00,39.00 999.00,39.00
             999.00,39.00 998.00,38.00 998.00,38.00
             998.00,38.00 999.00,38.00 999.00,38.00 Z
           M 1005.00,38.00
           C 1005.00,38.00 1005.00,39.00 1005.00,39.00
             1005.00,39.00 1004.00,38.00 1004.00,38.00
             1004.00,38.00 1005.00,38.00 1005.00,38.00 Z
           M 1023.00,38.00
           C 1026.70,42.50 1028.66,42.45 1030.40,44.55
             1031.35,45.70 1033.74,56.51 1033.55,58.00
             1032.74,64.40 1019.25,71.27 1013.00,62.00
             1013.00,62.00 1019.00,61.00 1019.00,61.00
             1019.00,61.00 1018.00,52.00 1018.00,52.00
             1022.54,41.76 1015.91,40.86 1023.00,38.00 Z
           M 896.00,39.00
           C 896.00,39.00 896.00,40.00 896.00,40.00
             896.00,40.00 895.00,39.00 895.00,39.00
             895.00,39.00 896.00,39.00 896.00,39.00 Z
           M 1000.00,39.00
           C 1000.00,39.00 1000.00,40.00 1000.00,40.00
             1000.00,40.00 999.00,39.00 999.00,39.00
             999.00,39.00 1000.00,39.00 1000.00,39.00 Z
           M 1006.00,39.00
           C 1006.00,39.00 1006.00,40.00 1006.00,40.00
             1006.00,40.00 1005.00,39.00 1005.00,39.00
             1005.00,39.00 1006.00,39.00 1006.00,39.00 Z
           M 898.00,40.00
           C 898.00,40.00 898.00,41.00 898.00,41.00
             898.00,41.00 897.00,40.00 897.00,40.00
             897.00,40.00 898.00,40.00 898.00,40.00 Z
           M 967.00,40.00
           C 967.00,40.00 967.00,41.00 967.00,41.00
             967.00,41.00 966.00,40.00 966.00,40.00
             966.00,40.00 967.00,40.00 967.00,40.00 Z
           M 970.00,40.00
           C 970.00,40.00 970.00,41.00 970.00,41.00
             970.00,41.00 969.00,40.00 969.00,40.00
             969.00,40.00 970.00,40.00 970.00,40.00 Z
           M 1001.00,40.00
           C 1001.00,40.00 1001.00,41.00 1001.00,41.00
             1001.00,41.00 1000.00,40.00 1000.00,40.00
             1000.00,40.00 1001.00,40.00 1001.00,40.00 Z
           M 1008.00,40.00
           C 1008.00,40.00 1008.00,41.00 1008.00,41.00
             1008.00,41.00 1007.00,40.00 1007.00,40.00
             1007.00,40.00 1008.00,40.00 1008.00,40.00 Z
           M 940.00,41.00
           C 940.00,41.00 935.00,42.00 935.00,42.00
             935.00,42.00 940.00,41.00 940.00,41.00 Z
           M 968.00,41.00
           C 968.00,41.00 968.00,42.00 968.00,42.00
             968.00,42.00 967.00,41.00 967.00,41.00
             967.00,41.00 968.00,41.00 968.00,41.00 Z
           M 971.00,41.00
           C 971.00,41.00 971.00,42.00 971.00,42.00
             971.00,42.00 970.00,41.00 970.00,41.00
             970.00,41.00 971.00,41.00 971.00,41.00 Z
           M 1002.00,41.00
           C 1002.00,41.00 1002.00,50.00 1002.00,50.00
             1000.69,46.70 1000.69,44.30 1002.00,41.00 Z
           M 1009.00,41.00
           C 1009.00,41.00 1009.00,42.00 1009.00,42.00
             1009.00,42.00 1008.00,41.00 1008.00,41.00
             1008.00,41.00 1009.00,41.00 1009.00,41.00 Z
           M 893.00,42.00
           C 893.00,42.00 893.00,43.00 893.00,43.00
             893.00,43.00 892.00,42.00 892.00,42.00
             892.00,42.00 893.00,42.00 893.00,42.00 Z
           M 896.00,42.00
           C 896.00,42.00 896.00,43.00 896.00,43.00
             896.00,43.00 895.00,42.00 895.00,42.00
             895.00,42.00 896.00,42.00 896.00,42.00 Z
           M 921.00,42.00
           C 921.00,42.00 921.00,48.00 921.00,48.00
             921.00,48.00 921.00,42.00 921.00,42.00 Z
           M 941.00,42.00
           C 941.00,42.00 941.00,43.00 941.00,43.00
             941.00,43.00 940.00,42.00 940.00,42.00
             940.00,42.00 941.00,42.00 941.00,42.00 Z
           M 948.00,42.00
           C 948.00,42.00 952.00,43.00 952.00,43.00
             952.00,43.00 947.00,43.00 947.00,43.00
             947.00,43.00 948.00,42.00 948.00,42.00 Z
           M 970.00,42.00
           C 970.00,42.00 970.00,43.00 970.00,43.00
             970.00,43.00 969.00,42.00 969.00,42.00
             969.00,42.00 970.00,42.00 970.00,42.00 Z
           M 972.00,42.00
           C 972.00,42.00 972.00,43.00 972.00,43.00
             972.00,43.00 971.00,42.00 971.00,42.00
             971.00,42.00 972.00,42.00 972.00,42.00 Z
           M 1011.00,42.00
           C 1011.00,42.00 1011.00,43.00 1011.00,43.00
             1011.00,43.00 1010.00,42.00 1010.00,42.00
             1010.00,42.00 1011.00,42.00 1011.00,42.00 Z
           M 947.00,43.00
           C 947.00,43.00 947.00,44.00 947.00,44.00
             947.00,44.00 946.00,43.00 946.00,43.00
             946.00,43.00 947.00,43.00 947.00,43.00 Z
           M 955.00,43.00
           C 955.00,43.00 955.00,44.00 955.00,44.00
             955.00,44.00 954.00,43.00 954.00,43.00
             954.00,43.00 955.00,43.00 955.00,43.00 Z
           M 973.00,43.00
           C 973.00,43.00 973.00,44.00 973.00,44.00
             973.00,44.00 972.00,43.00 972.00,43.00
             972.00,43.00 973.00,43.00 973.00,43.00 Z
           M 1012.00,43.00
           C 1012.00,43.00 1012.00,44.00 1012.00,44.00
             1012.00,44.00 1011.00,43.00 1011.00,43.00
             1011.00,43.00 1012.00,43.00 1012.00,43.00 Z
           M 931.00,44.00
           C 931.00,44.00 931.00,45.00 931.00,45.00
             931.00,45.00 930.00,44.00 930.00,44.00
             930.00,44.00 931.00,44.00 931.00,44.00 Z
           M 937.00,53.00
           C 937.00,53.00 933.23,51.44 933.23,51.44
             924.98,46.33 938.79,39.99 938.24,49.02
             938.15,50.48 937.52,51.68 937.00,53.00 Z
           M 946.00,44.00
           C 946.00,44.00 946.00,45.00 946.00,45.00
             946.00,45.00 945.00,44.00 945.00,44.00
             945.00,44.00 946.00,44.00 946.00,44.00 Z
           M 956.00,44.00
           C 956.00,44.00 956.00,49.00 956.00,49.00
             956.00,49.00 956.00,44.00 956.00,44.00 Z
           M 964.00,44.00
           C 964.00,44.00 964.00,45.00 964.00,45.00
             964.00,45.00 963.00,44.00 963.00,44.00
             963.00,44.00 964.00,44.00 964.00,44.00 Z
           M 1006.00,44.00
           C 1012.70,51.56 1011.11,52.06 1012.00,61.00
             1007.36,62.57 1006.64,62.29 1002.00,61.00
             1002.00,61.00 1006.00,44.00 1006.00,44.00 Z
           M 924.00,45.00
           C 924.00,45.00 924.00,51.00 924.00,51.00
             924.00,51.00 924.00,45.00 924.00,45.00 Z
           M 973.00,45.00
           C 973.00,45.00 973.00,46.00 973.00,46.00
             973.00,46.00 972.00,45.00 972.00,45.00
             972.00,45.00 973.00,45.00 973.00,45.00 Z
           M 961.00,46.00
           C 961.00,46.00 961.00,47.00 961.00,47.00
             961.00,47.00 960.00,46.00 960.00,46.00
             960.00,46.00 961.00,46.00 961.00,46.00 Z
           M 968.00,48.00
           C 968.00,48.00 967.00,56.00 967.00,56.00
             961.25,54.16 962.02,51.35 962.00,46.00
             962.00,46.00 968.00,48.00 968.00,48.00 Z
           M 972.00,46.00
           C 972.00,46.00 972.00,47.00 972.00,47.00
             972.00,47.00 971.00,46.00 971.00,46.00
             971.00,46.00 972.00,46.00 972.00,46.00 Z
           M 1014.00,46.00
           C 1014.00,46.00 1014.00,47.00 1014.00,47.00
             1014.00,47.00 1013.00,46.00 1013.00,46.00
             1013.00,46.00 1014.00,46.00 1014.00,46.00 Z
           M 928.00,47.00
           C 928.00,47.00 928.00,48.00 928.00,48.00
             928.00,48.00 927.00,47.00 927.00,47.00
             927.00,47.00 928.00,47.00 928.00,47.00 Z
           M 987.00,58.00
           C 980.07,57.59 979.92,56.30 978.00,50.00
             985.66,47.27 986.91,51.39 987.00,58.00 Z
           M 990.00,48.00
           C 990.00,48.00 990.00,49.00 990.00,49.00
             990.00,49.00 989.00,48.00 989.00,48.00
             989.00,48.00 990.00,48.00 990.00,48.00 Z
           M 991.00,49.00
           C 991.00,49.00 991.00,50.00 991.00,50.00
             991.00,50.00 990.00,49.00 990.00,49.00
             990.00,49.00 991.00,49.00 991.00,49.00 Z
           M 905.00,51.00
           C 905.00,51.00 905.00,52.00 905.00,52.00
             905.00,52.00 904.00,51.00 904.00,51.00
             904.00,51.00 905.00,51.00 905.00,51.00 Z
           M 978.00,51.00
           C 978.00,51.00 978.00,52.00 978.00,52.00
             978.00,52.00 977.00,51.00 977.00,51.00
             977.00,51.00 978.00,51.00 978.00,51.00 Z
           M 1001.00,51.00
           C 1000.99,54.85 1001.88,57.39 998.00,59.00
             998.00,59.00 1001.00,51.00 1001.00,51.00 Z
           M 920.00,52.00
           C 920.00,52.00 920.00,58.00 920.00,58.00
             920.00,58.00 920.00,52.00 920.00,52.00 Z
           M 928.00,52.00
           C 928.00,52.00 928.00,53.00 928.00,53.00
             928.00,53.00 927.00,52.00 927.00,52.00
             927.00,52.00 928.00,52.00 928.00,52.00 Z
           M 942.00,52.00
           C 942.00,52.00 942.00,53.00 942.00,53.00
             942.00,53.00 941.00,52.00 941.00,52.00
             941.00,52.00 942.00,52.00 942.00,52.00 Z
           M 955.00,52.00
           C 955.00,52.00 955.00,53.00 955.00,53.00
             955.00,53.00 954.00,52.00 954.00,52.00
             954.00,52.00 955.00,52.00 955.00,52.00 Z
           M 977.00,52.00
           C 977.00,52.00 977.00,53.00 977.00,53.00
             977.00,53.00 976.00,52.00 976.00,52.00
             976.00,52.00 977.00,52.00 977.00,52.00 Z
           M 1016.00,52.00
           C 1016.00,52.00 1016.00,53.00 1016.00,53.00
             1016.00,53.00 1015.00,52.00 1015.00,52.00
             1015.00,52.00 1016.00,52.00 1016.00,52.00 Z
           M 902.00,53.00
           C 902.00,53.00 902.00,54.00 902.00,54.00
             902.00,54.00 901.00,53.00 901.00,53.00
             901.00,53.00 902.00,53.00 902.00,53.00 Z
           M 956.00,53.00
           C 956.00,53.00 956.00,54.00 956.00,54.00
             956.00,54.00 955.00,53.00 955.00,53.00
             955.00,53.00 956.00,53.00 956.00,53.00 Z
           M 1019.00,53.00
           C 1018.03,56.36 1018.37,57.62 1015.00,59.00
             1015.00,59.00 1017.00,53.00 1017.00,53.00
             1017.00,53.00 1019.00,53.00 1019.00,53.00 Z
           M 911.00,54.00
           C 911.00,54.00 911.00,55.00 911.00,55.00
             911.00,55.00 910.00,54.00 910.00,54.00
             910.00,54.00 911.00,54.00 911.00,54.00 Z
           M 938.00,54.00
           C 938.00,54.00 930.00,55.00 930.00,55.00
             930.00,55.00 938.00,54.00 938.00,54.00 Z
           M 947.00,54.00
           C 947.00,54.00 947.00,55.00 947.00,55.00
             947.00,55.00 946.00,54.00 946.00,54.00
             946.00,54.00 947.00,54.00 947.00,54.00 Z
           M 957.00,54.00
           C 957.00,54.00 957.00,55.00 957.00,55.00
             957.00,55.00 956.00,54.00 956.00,54.00
             956.00,54.00 957.00,54.00 957.00,54.00 Z
           M 943.00,55.00
           C 943.00,55.00 938.00,56.00 938.00,56.00
             938.00,56.00 943.00,55.00 943.00,55.00 Z
           M 946.00,55.00
           C 946.00,55.00 946.00,56.00 946.00,56.00
             946.00,56.00 945.00,55.00 945.00,55.00
             945.00,55.00 946.00,55.00 946.00,55.00 Z
           M 952.00,55.00
           C 952.00,55.00 952.00,56.00 952.00,56.00
             952.00,56.00 951.00,55.00 951.00,55.00
             951.00,55.00 952.00,55.00 952.00,55.00 Z
           M 944.00,56.00
           C 944.00,56.00 944.00,57.00 944.00,57.00
             944.00,57.00 943.00,56.00 943.00,56.00
             943.00,56.00 944.00,56.00 944.00,56.00 Z
           M 960.00,56.00
           C 960.00,56.00 960.00,57.00 960.00,57.00
             960.00,57.00 959.00,56.00 959.00,56.00
             959.00,56.00 960.00,56.00 960.00,56.00 Z
           M 951.00,57.00
           C 951.00,57.00 951.00,58.00 951.00,58.00
             951.00,58.00 950.00,57.00 950.00,57.00
             950.00,57.00 951.00,57.00 951.00,57.00 Z
           M 961.00,57.00
           C 961.00,57.00 961.00,58.00 961.00,58.00
             961.00,58.00 960.00,57.00 960.00,57.00
             960.00,57.00 961.00,57.00 961.00,57.00 Z
           M 965.00,57.00
           C 965.00,57.00 965.00,58.00 965.00,58.00
             965.00,58.00 964.00,57.00 964.00,57.00
             964.00,57.00 965.00,57.00 965.00,57.00 Z
           M 967.00,57.00
           C 967.00,57.00 967.00,62.00 967.00,62.00
             967.00,62.00 967.00,57.00 967.00,57.00 Z
           M 998.00,57.00
           C 998.00,57.00 998.00,58.00 998.00,58.00
             998.00,58.00 997.00,57.00 997.00,57.00
             997.00,57.00 998.00,57.00 998.00,57.00 Z
           M 927.00,58.00
           C 927.00,58.00 927.00,59.00 927.00,59.00
             927.00,59.00 926.00,58.00 926.00,58.00
             926.00,58.00 927.00,58.00 927.00,58.00 Z
           M 952.00,58.00
           C 952.00,58.00 952.00,59.00 952.00,59.00
             952.00,59.00 951.00,58.00 951.00,58.00
             951.00,58.00 952.00,58.00 952.00,58.00 Z
           M 977.00,58.00
           C 977.00,58.00 977.00,59.00 977.00,59.00
             977.00,59.00 976.00,58.00 976.00,58.00
             976.00,58.00 977.00,58.00 977.00,58.00 Z
           M 997.00,58.00
           C 997.00,58.00 997.00,59.00 997.00,59.00
             997.00,59.00 996.00,58.00 996.00,58.00
             996.00,58.00 997.00,58.00 997.00,58.00 Z
           M 1014.00,58.00
           C 1014.00,58.00 1014.00,59.00 1014.00,59.00
             1014.00,59.00 1013.00,58.00 1013.00,58.00
             1013.00,58.00 1014.00,58.00 1014.00,58.00 Z
           M 921.00,59.00
           C 921.00,59.00 921.00,60.00 921.00,60.00
             921.00,60.00 920.00,59.00 920.00,59.00
             920.00,59.00 921.00,59.00 921.00,59.00 Z
           M 949.00,59.00
           C 949.00,59.00 949.00,60.00 949.00,60.00
             949.00,60.00 948.00,59.00 948.00,59.00
             948.00,59.00 949.00,59.00 949.00,59.00 Z
           M 975.00,59.00
           C 975.00,59.00 970.00,60.00 970.00,60.00
             970.00,60.00 970.00,64.00 970.00,64.00
             970.00,64.00 969.00,59.00 969.00,59.00
             969.00,59.00 975.00,59.00 975.00,59.00 Z
           M 979.00,59.00
           C 979.00,59.00 979.00,60.00 979.00,60.00
             979.00,60.00 978.00,59.00 978.00,59.00
             978.00,59.00 979.00,59.00 979.00,59.00 Z
           M 1013.00,59.00
           C 1013.00,59.00 1013.00,60.00 1013.00,60.00
             1013.00,60.00 1012.00,59.00 1012.00,59.00
             1012.00,59.00 1013.00,59.00 1013.00,59.00 Z
           M 1015.00,59.00
           C 1015.00,59.00 1015.00,60.00 1015.00,60.00
             1015.00,60.00 1014.00,59.00 1014.00,59.00
             1014.00,59.00 1015.00,59.00 1015.00,59.00 Z
           M 987.00,60.00
           C 987.00,60.00 987.00,61.00 987.00,61.00
             987.00,61.00 986.00,60.00 986.00,60.00
             986.00,60.00 987.00,60.00 987.00,60.00 Z
           M 1014.00,60.00
           C 1014.00,60.00 1014.00,61.00 1014.00,61.00
             1014.00,61.00 1013.00,60.00 1013.00,60.00
             1013.00,60.00 1014.00,60.00 1014.00,60.00 Z
           M 993.00,61.00
           C 993.00,61.00 988.00,62.00 988.00,62.00
             988.00,62.00 993.00,61.00 993.00,61.00 Z
           M 1006.00,63.00
           C 1006.00,63.00 998.00,64.00 998.00,64.00
             998.00,64.00 1006.00,63.00 1006.00,63.00 Z
           M 965.00,64.00
           C 965.00,64.00 965.00,65.00 965.00,65.00
             965.00,65.00 964.00,64.00 964.00,64.00
             964.00,64.00 965.00,64.00 965.00,64.00 Z
           M 969.00,66.00
           C 969.00,66.00 969.00,67.00 969.00,67.00
             969.00,67.00 968.00,66.00 968.00,66.00
             968.00,66.00 969.00,66.00 969.00,66.00 Z
           M 964.00,67.00
           C 964.00,67.00 964.00,68.00 964.00,68.00
             964.00,68.00 963.00,67.00 963.00,67.00
             963.00,67.00 964.00,67.00 964.00,67.00 Z
           M 968.00,67.00
           C 968.00,67.00 968.00,68.00 968.00,68.00
             968.00,68.00 967.00,67.00 967.00,67.00
             967.00,67.00 968.00,67.00 968.00,67.00 Z" />
</svg>
