<?xml version="1.0" encoding="UTF-8" standalone="no"?>
<!DOCTYPE svg PUBLIC "-//W3C//DTD SVG 20010904//EN"
              "http://www.w3.org/TR/2001/REC-SVG-20010904/DTD/svg10.dtd">

<svg xmlns="http://www.w3.org/2000/svg"
     width="17.9167in" height="6.94444in"
     viewBox="0 0 1290 500">
  <path id="Selection #5"
        fill="none" stroke="black" stroke-width="1"
        d="M 535.00,277.00
           C 529.71,277.00 526.97,277.92 523.00,274.00
             523.00,274.00 535.00,274.00 535.00,274.00
             534.86,271.14 534.80,267.68 532.49,265.60
             527.74,261.31 520.10,265.31 519.24,271.00
             517.70,281.17 532.18,285.04 535.00,277.00 Z
           M 531.00,271.00
           C 531.00,271.00 523.00,271.00 523.00,271.00
             525.71,267.39 528.38,267.09 531.00,271.00 Z
           M 518.00,232.00
           C 518.00,232.00 518.00,238.00 518.00,238.00
             515.55,238.01 512.28,237.80 510.11,239.02
             504.65,242.09 505.47,250.66 508.51,253.40
             511.01,255.66 517.48,254.76 521.00,255.00
             521.00,255.00 521.00,232.00 521.00,232.00
             521.00,232.00 518.00,232.00 518.00,232.00 Z
           M 517.93,242.16
           C 517.93,242.16 517.93,246.94 517.93,246.94
             516.14,257.07 503.91,245.10 514.06,242.16
             515.25,241.99 516.77,242.04 517.93,242.16 Z
           M 499.11,213.02
           C 489.42,220.87 498.66,233.39 507.77,227.83
             511.84,225.35 512.09,216.73 508.57,213.74
             505.82,211.40 502.18,211.96 499.11,213.02 Z
           M 501.43,216.59
           C 508.68,215.43 507.54,223.09 504.70,224.39
             500.46,226.32 496.79,220.56 501.43,216.59 Z
           M 484.00,184.00
           C 484.00,184.00 484.00,201.00 484.00,201.00
             484.00,201.00 488.00,201.00 488.00,201.00
             488.00,198.05 487.23,190.66 490.30,189.17
             495.95,186.41 495.00,198.51 495.00,201.00
             495.00,201.00 499.00,201.00 499.00,201.00
             499.00,197.08 500.01,187.39 496.57,185.02
             494.60,183.67 486.92,184.14 484.00,184.00 Z" />
</svg>
