<?xml version="1.0" encoding="UTF-8" standalone="no"?>
<!DOCTYPE svg PUBLIC "-//W3C//DTD SVG 20010904//EN"
              "http://www.w3.org/TR/2001/REC-SVG-20010904/DTD/svg10.dtd">

<svg xmlns="http://www.w3.org/2000/svg"
     width="17.9167in" height="6.94444in"
     viewBox="0 0 1290 500">
  <path id="Selection"
        fill="none" stroke="black" stroke-width="1"
        d="M 478.96,177.80
           C 478.96,177.80 478.96,195.00 478.96,195.00
             478.96,195.00 478.00,207.00 478.00,207.00
             478.00,207.00 478.00,233.00 478.00,233.00
             478.00,233.00 477.00,249.00 477.00,249.00
             477.00,249.00 477.00,284.00 477.00,284.00
             477.00,284.00 539.90,285.00 539.90,285.00
             539.90,285.00 539.90,210.00 539.90,210.00
             539.90,210.00 539.90,200.04 539.90,200.04
             539.90,200.04 533.00,193.20 533.00,193.20
             533.00,193.20 512.00,177.80 512.00,177.80
             512.00,177.80 498.00,177.80 498.00,177.80
             498.00,177.80 478.96,177.80 478.96,177.80 Z" />
</svg>
