<?xml version="1.0" encoding="UTF-8" standalone="no"?>
<!DOCTYPE svg PUBLIC "-//W3C//DTD SVG 20010904//EN"
              "http://www.w3.org/TR/2001/REC-SVG-20010904/DTD/svg10.dtd">

<svg xmlns="http://www.w3.org/2000/svg"
     width="17.9167in" height="6.94444in"
     viewBox="0 0 1290 500">
  <path id="Selection #1"
        fill="none" stroke="black" stroke-width="1"
        d="M 481.00,179.00
           C 481.00,179.00 479.96,200.00 479.96,200.00
             479.96,200.00 479.96,216.00 479.96,216.00
             479.96,216.00 479.00,228.00 479.00,228.00
             479.00,228.00 478.00,267.00 478.00,267.00
             477.88,277.03 473.90,281.81 484.00,282.00
             484.00,282.00 509.00,282.00 509.00,282.00
             509.00,282.00 524.00,283.00 524.00,283.00
             524.00,283.00 538.00,283.00 538.00,283.00
             538.00,283.00 538.00,199.00 538.00,199.00
             538.00,199.00 521.31,199.89 521.31,199.89
             521.31,199.89 518.35,194.00 518.35,194.00
             518.35,194.00 515.00,179.00 515.00,179.00
             515.00,179.00 481.00,179.00 481.00,179.00 Z" />
</svg>
