<?xml version="1.0" encoding="UTF-8" standalone="no"?>
<!DOCTYPE svg PUBLIC "-//W3C//DTD SVG 20010904//EN"
              "http://www.w3.org/TR/2001/REC-SVG-20010904/DTD/svg10.dtd">

<svg xmlns="http://www.w3.org/2000/svg"
     width="17.9167in" height="6.94444in"
     viewBox="0 0 1290 500">
  <path id="Selection #1"
        fill="none" stroke="black" stroke-width="1"
        d="M 1040.00,148.00
           C 1040.00,148.00 1035.00,173.00 1035.00,173.00
             1035.00,173.00 1039.00,173.00 1039.00,173.00
             1039.00,173.00 1042.00,160.00 1042.00,160.00
             1043.24,165.39 1043.06,173.94 1049.00,176.00
             1049.00,176.00 1055.00,151.00 1055.00,151.00
             1055.00,151.00 1051.00,150.00 1051.00,150.00
             1051.00,150.00 1048.00,163.00 1048.00,163.00
             1043.76,152.98 1047.67,149.35 1040.00,148.00 Z
           M 1077.00,157.00
           C 1077.00,157.00 1074.00,160.00 1074.00,160.00
             1073.62,163.06 1072.65,167.71 1074.91,170.27
             1076.53,172.11 1079.76,172.05 1080.75,174.29
             1081.59,176.19 1080.14,178.37 1078.02,178.09
             1075.81,177.80 1075.63,175.54 1071.00,174.00
             1071.00,174.00 1071.00,181.00 1071.00,181.00
             1071.00,181.00 1082.00,184.00 1082.00,184.00
             1086.80,177.51 1086.17,177.77 1086.00,170.00
             1086.00,170.00 1077.00,168.00 1077.00,168.00
             1077.00,168.00 1079.00,161.00 1079.00,161.00
             1079.00,161.00 1085.00,163.00 1085.00,163.00
             1085.00,163.00 1084.00,166.00 1084.00,166.00
             1084.00,166.00 1088.00,167.00 1088.00,167.00
             1088.00,167.00 1088.00,159.00 1088.00,159.00
             1088.00,159.00 1077.00,157.00 1077.00,157.00 Z
           M 1056.00,178.00
           C 1057.39,178.23 1059.55,178.70 1060.91,178.52
             1062.69,178.29 1063.83,177.50 1065.10,176.28
             1070.14,171.44 1067.81,166.97 1067.00,160.86
             1065.34,160.80 1062.76,160.33 1061.17,160.86
             1059.55,161.14 1058.31,162.24 1057.17,163.39
             1052.27,168.33 1054.81,172.04 1056.00,178.00 Z
           M 1097.00,161.00
           C 1097.00,161.00 1091.68,168.09 1091.68,168.09
             1088.66,173.71 1087.77,184.53 1095.00,187.00
             1095.38,191.48 1095.23,193.26 1099.00,196.00
             1100.08,191.46 1099.82,190.26 1098.00,186.00
             1099.79,184.94 1100.79,184.52 1102.13,182.78
             1105.17,178.82 1107.29,170.55 1103.00,167.00
             1103.00,167.00 1104.00,163.00 1104.00,163.00
             1104.00,163.00 1097.00,161.00 1097.00,161.00 Z
           M 1047.00,163.00
           C 1047.00,163.00 1047.00,164.00 1047.00,164.00
             1047.00,164.00 1046.00,163.00 1046.00,163.00
             1046.00,163.00 1047.00,163.00 1047.00,163.00 Z
           M 1063.00,164.00
           C 1064.81,169.32 1064.40,170.02 1062.00,175.00
             1062.00,175.00 1058.00,174.00 1058.00,174.00
             1058.00,174.00 1061.00,164.00 1061.00,164.00
             1061.00,164.00 1063.00,164.00 1063.00,164.00 Z
           M 1101.00,166.00
           C 1100.58,172.75 1101.95,180.42 1094.00,183.00
             1093.02,174.06 1093.89,173.89 1097.00,166.00
             1097.00,166.00 1101.00,166.00 1101.00,166.00 Z
           M 1113.00,165.00
           C 1113.00,165.00 1106.00,190.00 1106.00,190.00
             1106.00,190.00 1119.00,193.00 1119.00,193.00
             1119.00,193.00 1120.00,189.00 1120.00,189.00
             1120.00,189.00 1111.00,187.00 1111.00,187.00
             1111.00,187.00 1116.00,166.00 1116.00,166.00
             1116.00,166.00 1113.00,165.00 1113.00,165.00 Z" />
</svg>
