<?xml version="1.0" encoding="UTF-8" standalone="no"?>
<!DOCTYPE svg PUBLIC "-//W3C//DTD SVG 20010904//EN"
              "http://www.w3.org/TR/2001/REC-SVG-20010904/DTD/svg10.dtd">

<svg xmlns="http://www.w3.org/2000/svg"
     width="17.9167in" height="6.94444in"
     viewBox="0 0 1290 500">
  <path id="Selection"
        fill="none" stroke="black" stroke-width="1"
        d="M 1021.00,127.00
           C 1021.00,127.00 1020.00,142.00 1020.00,142.00
             1020.00,142.00 1019.00,158.00 1019.00,158.00
             1019.00,158.00 1018.00,188.00 1018.00,188.00
             1018.00,188.00 1074.00,201.35 1074.00,201.35
             1074.00,201.35 1115.00,211.12 1115.00,211.12
             1115.00,211.12 1143.00,218.00 1143.00,218.00
             1143.00,218.00 1145.09,193.00 1145.09,193.00
             1145.09,193.00 1148.00,153.00 1148.00,153.00
             1148.00,153.00 1114.00,146.21 1114.00,146.21
             1114.00,146.21 1021.00,127.00 1021.00,127.00 Z" />
</svg>
