<?xml version="1.0" encoding="UTF-8" standalone="no"?>
<!DOCTYPE svg PUBLIC "-//W3C//DTD SVG 20010904//EN"
              "http://www.w3.org/TR/2001/REC-SVG-20010904/DTD/svg10.dtd">

<svg xmlns="http://www.w3.org/2000/svg"
     width="17.9167in" height="6.94444in"
     viewBox="0 0 1290 500">
  <path id="Selection #1"
        fill="none" stroke="black" stroke-width="1"
        d="M 246.04,89.00
           C 246.04,89.00 246.04,104.00 246.04,104.00
             246.04,104.00 247.00,116.00 247.00,116.00
             247.00,116.00 247.00,134.00 247.00,134.00
             247.00,134.00 248.00,154.00 248.00,154.00
             254.59,153.45 266.09,150.08 273.00,148.37
             273.00,148.37 312.00,139.12 312.00,139.12
             315.41,138.31 328.24,135.79 329.98,133.44
             331.23,131.74 331.00,128.08 331.00,126.00
             331.00,126.00 331.00,103.00 331.00,103.00
             331.00,103.00 330.00,87.00 330.00,87.00
             330.00,87.00 330.00,69.00 330.00,69.00
             330.00,69.00 303.00,75.13 303.00,75.13
             303.00,75.13 246.04,89.00 246.04,89.00 Z" />
</svg>
