<?xml version="1.0" encoding="UTF-8" standalone="no"?>
<!DOCTYPE svg PUBLIC "-//W3C//DTD SVG 20010904//EN"
              "http://www.w3.org/TR/2001/REC-SVG-20010904/DTD/svg10.dtd">

<svg xmlns="http://www.w3.org/2000/svg"
     width="17.9167in" height="6.94444in"
     viewBox="0 0 1290 500">
  <path id="Selection #1"
        fill="none" stroke="black" stroke-width="1"
        d="M 1248.00,38.00
           C 1251.36,43.75 1252.99,42.52 1259.00,44.00
             1254.58,52.58 1262.33,57.51 1266.91,56.52
             1271.20,55.58 1274.31,47.02 1273.62,43.18
             1273.26,41.19 1272.22,40.41 1271.00,39.00
             1263.33,43.87 1262.36,38.79 1256.00,37.12
             1253.33,36.42 1250.62,37.47 1248.00,38.00 Z
           M 1269.00,50.00
           C 1262.79,52.72 1258.35,51.58 1260.00,44.00
             1264.98,44.79 1267.10,45.05 1269.00,50.00 Z
           M 1248.00,62.00
           C 1248.00,62.00 1248.00,58.00 1248.00,58.00
             1253.62,57.57 1256.16,57.64 1259.00,63.00
             1259.00,63.00 1251.00,64.00 1251.00,64.00
             1251.00,64.00 1261.00,67.00 1261.00,67.00
             1261.19,63.32 1262.38,61.14 1259.58,58.02
             1253.76,51.54 1244.81,52.51 1248.00,62.00 Z
           M 1246.00,66.00
           C 1245.49,70.18 1242.86,72.13 1247.00,75.00
             1247.00,75.00 1246.00,72.00 1246.00,72.00
             1246.00,72.00 1250.00,72.00 1250.00,72.00
             1250.00,72.00 1250.00,67.00 1250.00,67.00
             1250.00,67.00 1246.00,66.00 1246.00,66.00 Z
           M 1247.00,76.00
           C 1247.00,76.00 1247.00,78.00 1247.00,78.00
             1252.92,78.73 1252.77,75.67 1258.00,73.00
             1258.00,73.00 1256.00,79.00 1256.00,79.00
             1256.00,79.00 1257.00,80.00 1257.00,80.00
             1257.00,80.00 1259.00,80.00 1259.00,80.00
             1262.18,71.85 1256.93,69.30 1253.37,70.62
             1253.37,70.62 1247.00,76.00 1247.00,76.00 Z
           M 1255.00,82.00
           C 1250.74,87.64 1243.78,79.40 1242.00,90.00
             1247.55,87.71 1251.71,85.77 1254.00,93.00
             1254.00,93.00 1256.00,90.00 1256.00,90.00
             1256.00,90.00 1259.00,91.00 1259.00,91.00
             1259.64,86.47 1258.11,85.08 1255.00,82.00 Z
           M 1235.00,92.00
           C 1234.46,93.90 1234.10,94.97 1234.06,97.00
             1233.85,107.20 1240.29,106.22 1247.00,107.85
             1250.11,108.60 1252.14,109.69 1255.00,111.00
             1255.00,105.29 1255.45,101.04 1250.96,96.69
             1249.87,95.64 1248.58,94.60 1247.00,94.51
             1245.23,94.41 1242.55,96.15 1241.00,97.00
             1241.00,97.00 1241.64,99.92 1241.64,99.92
             1241.98,105.41 1233.99,99.95 1239.00,96.00
             1239.00,96.00 1235.00,92.00 1235.00,92.00 Z
           M 1251.23,106.00
           C 1251.23,106.00 1247.15,104.87 1247.15,104.87
             1238.83,101.25 1250.56,94.23 1251.23,103.04
             1251.60,104.38 1251.20,105.02 1251.23,106.00 Z
           M 1238.00,113.00
           C 1241.73,118.64 1246.01,114.54 1247.00,123.00
             1247.00,123.00 1252.00,124.00 1252.00,124.00
             1252.00,124.00 1249.00,117.00 1249.00,117.00
             1249.00,117.00 1253.00,118.00 1253.00,118.00
             1253.00,118.00 1252.00,113.00 1252.00,113.00
             1245.18,115.09 1244.99,113.33 1238.00,113.00 Z
           M 1239.00,124.00
           C 1235.90,128.90 1234.62,129.45 1237.00,135.00
             1237.42,133.39 1237.55,130.79 1238.68,129.60
             1241.07,127.07 1246.22,127.41 1247.00,134.00
             1247.00,134.00 1244.00,134.00 1244.00,134.00
             1244.00,134.00 1241.00,131.00 1241.00,131.00
             1246.30,141.77 1254.24,132.19 1244.90,126.01
             1242.89,124.68 1241.27,124.43 1239.00,124.00 Z
           M 1246.00,143.00
           C 1246.00,143.00 1247.00,144.00 1247.00,144.00
             1247.00,144.00 1247.00,146.00 1247.00,146.00
             1247.00,146.00 1244.00,147.00 1244.00,147.00
             1244.00,147.00 1248.00,151.00 1248.00,151.00
             1248.26,147.28 1248.93,138.88 1242.23,140.87
             1240.18,141.48 1239.54,143.74 1235.00,146.00
             1235.00,146.00 1234.00,143.00 1234.00,143.00
             1234.00,143.00 1237.98,142.00 1237.98,142.00
             1237.98,142.00 1237.98,138.00 1237.98,138.00
             1228.78,140.92 1234.30,148.60 1237.98,148.66
             1240.00,148.70 1244.07,144.44 1246.00,143.00 Z
           M 1233.00,159.00
           C 1238.25,151.44 1244.46,165.07 1236.42,161.17
             1236.42,161.17 1235.00,160.00 1235.00,160.00
             1235.00,160.00 1222.00,159.00 1222.00,159.00
             1225.59,165.00 1225.93,162.09 1236.00,164.43
             1236.00,164.43 1247.00,168.00 1247.00,168.00
             1247.00,168.00 1244.00,165.00 1244.00,165.00
             1244.81,159.66 1242.98,153.77 1237.00,152.47
             1233.00,151.61 1228.52,154.12 1233.00,159.00 Z
           M 1228.00,170.00
           C 1228.00,170.00 1226.00,173.00 1226.00,173.00
             1230.37,174.73 1233.62,173.54 1238.00,174.21
             1247.39,175.64 1240.90,178.20 1254.00,176.00
             1254.00,176.00 1252.00,172.00 1252.00,172.00
             1252.00,172.00 1228.00,170.00 1228.00,170.00 Z" />
</svg>
