<?xml version="1.0" encoding="UTF-8" standalone="no"?>
<!DOCTYPE svg PUBLIC "-//W3C//DTD SVG 20010904//EN"
              "http://www.w3.org/TR/2001/REC-SVG-20010904/DTD/svg10.dtd">

<svg xmlns="http://www.w3.org/2000/svg"
     width="17.9167in" height="6.94444in"
     viewBox="0 0 1290 500">
  <path id="Selection #16"
        fill="none" stroke="black" stroke-width="1"
        d="M 255.00,6.00
           C 255.00,6.00 211.00,13.59 211.00,13.59
             211.00,13.59 194.28,16.72 194.28,16.72
             191.22,18.32 190.23,24.83 189.28,28.00
             188.01,32.23 184.03,42.08 184.67,46.00
             184.98,47.96 187.98,53.85 189.00,56.00
             192.58,51.06 191.90,47.00 198.00,45.00
             198.00,45.00 194.00,59.00 194.00,59.00
             194.00,59.00 200.00,58.00 200.00,58.00
             200.00,58.00 199.00,42.00 199.00,42.00
             199.00,42.00 203.00,42.00 203.00,42.00
             203.00,42.00 204.00,57.00 204.00,57.00
             204.00,57.00 210.00,57.00 210.00,57.00
             210.00,57.00 210.00,61.00 210.00,61.00
             210.00,61.00 204.00,61.00 204.00,61.00
             204.00,61.00 205.00,79.00 205.00,79.00
             205.00,79.00 201.00,79.00 201.00,79.00
             201.00,79.00 200.00,62.00 200.00,62.00
             200.00,62.00 194.00,60.00 194.00,60.00
             194.00,60.00 184.49,82.41 184.49,82.41
             184.49,82.41 181.00,84.00 181.00,84.00
             181.00,84.00 186.64,66.00 186.64,66.00
             186.64,66.00 183.00,51.00 183.00,51.00
             183.00,51.00 179.54,59.00 179.54,59.00
             179.54,59.00 177.26,66.00 177.26,66.00
             177.26,66.00 178.00,87.00 178.00,87.00
             178.00,87.00 174.00,87.00 174.00,87.00
             174.00,87.00 173.00,59.00 173.00,59.00
             173.00,59.00 172.06,46.00 172.06,46.00
             172.06,46.00 172.06,31.18 172.06,31.18
             172.06,31.18 186.00,18.00 186.00,18.00
             182.82,18.26 169.70,19.60 167.99,21.74
             166.33,23.82 167.96,31.88 167.99,35.00
             167.99,35.00 169.00,77.00 169.00,77.00
             169.00,77.00 170.00,94.00 170.00,94.00
             170.00,94.00 198.00,87.88 198.00,87.88
             198.00,87.88 240.00,78.13 240.00,78.13
             243.61,77.23 257.20,74.86 258.98,72.44
             260.06,70.98 259.96,68.72 259.83,67.00
             259.83,67.00 259.00,58.00 259.00,58.00
             259.00,58.00 257.96,41.00 257.96,41.00
             257.96,41.00 257.96,33.00 257.96,33.00
             257.96,33.00 257.00,21.00 257.00,21.00
             256.99,15.93 257.02,10.73 255.00,6.00 Z
           M 252.00,13.00
           C 252.00,13.00 257.00,68.00 257.00,68.00
             257.00,68.00 253.00,68.00 253.00,68.00
             253.00,68.00 247.00,47.00 247.00,47.00
             247.00,47.00 250.00,70.00 250.00,70.00
             250.00,70.00 231.00,75.00 231.00,75.00
             231.00,75.00 228.00,50.00 228.00,50.00
             228.00,50.00 242.00,47.00 242.00,47.00
             242.00,47.00 237.00,21.00 237.00,21.00
             237.00,21.00 243.00,21.00 243.00,21.00
             243.00,21.00 250.00,46.00 250.00,46.00
             250.00,46.00 248.00,13.00 248.00,13.00
             248.00,13.00 252.00,13.00 252.00,13.00 Z
           M 213.00,19.00
           C 213.00,19.00 215.00,53.00 215.00,53.00
             215.00,53.00 226.00,51.00 226.00,51.00
             226.00,51.00 229.00,76.00 229.00,76.00
             229.00,76.00 225.00,76.00 225.00,76.00
             225.00,76.00 223.00,55.00 223.00,55.00
             223.00,55.00 216.00,57.00 216.00,57.00
             216.00,57.00 217.00,78.00 217.00,78.00
             217.00,78.00 213.00,78.00 213.00,78.00
             213.00,78.00 211.09,54.00 211.09,54.00
             211.09,54.00 209.91,31.00 209.91,31.00
             209.91,31.00 209.00,19.00 209.00,19.00
             209.00,19.00 213.00,19.00 213.00,19.00 Z" />
</svg>
