<?xml version="1.0" encoding="UTF-8" standalone="no"?>
<!DOCTYPE svg PUBLIC "-//W3C//DTD SVG 20010904//EN"
              "http://www.w3.org/TR/2001/REC-SVG-20010904/DTD/svg10.dtd">

<svg xmlns="http://www.w3.org/2000/svg"
     width="17.9167in" height="6.94444in"
     viewBox="0 0 1290 500">
  <path id="Selection #18"
        fill="none" stroke="black" stroke-width="1"
        d="M 212.00,188.00
           C 212.00,188.00 219.00,190.00 219.00,190.00
             219.00,190.00 223.00,202.00 223.00,202.00
             225.34,197.97 224.99,195.51 225.00,191.00
             226.26,195.12 227.17,199.66 226.91,204.00
             226.44,211.58 223.56,213.42 226.00,222.00
             226.00,222.00 233.00,218.00 233.00,218.00
             233.00,218.00 229.00,222.00 229.00,222.00
             229.56,228.01 228.23,229.61 237.00,231.00
             239.13,225.63 241.57,218.85 240.67,213.00
             240.67,213.00 238.83,205.42 238.83,205.42
             237.26,196.52 237.67,196.71 234.00,188.00
             239.53,192.97 238.15,195.82 240.68,202.00
             242.74,207.04 248.19,214.50 253.00,217.00
             253.00,217.00 253.00,205.00 253.00,205.00
             249.65,200.81 253.99,200.16 257.32,195.09
             259.01,192.52 259.54,188.99 260.00,186.00
             260.00,186.00 249.00,189.00 249.00,189.00
             255.06,182.71 268.99,181.07 275.00,167.00
             275.00,167.00 262.00,171.33 262.00,171.33
             262.00,171.33 212.00,188.00 212.00,188.00 Z
           M 275.00,174.00
           C 270.53,182.88 269.98,193.18 270.00,203.00
             270.01,209.68 272.45,213.66 270.00,220.00
             270.00,220.00 278.00,220.00 278.00,220.00
             278.00,220.00 278.00,222.00 278.00,222.00
             271.19,222.00 267.47,221.31 261.00,224.00
             261.00,224.00 265.00,228.00 265.00,228.00
             256.02,227.50 254.74,223.52 247.00,220.00
             247.00,220.00 241.00,231.00 241.00,231.00
             241.00,231.00 249.00,233.00 249.00,233.00
             249.00,233.00 238.00,235.00 238.00,235.00
             238.00,235.00 238.00,238.00 238.00,238.00
             230.37,238.69 228.97,240.63 223.00,245.00
             221.16,237.44 223.44,226.64 216.00,222.00
             219.07,217.03 220.10,214.80 221.00,209.00
             221.00,209.00 210.00,223.00 210.00,223.00
             219.38,227.49 220.99,241.57 221.00,251.00
             212.30,241.83 215.41,236.42 207.00,231.00
             206.92,240.09 204.63,243.26 200.21,250.99
             196.75,257.02 194.30,255.91 195.00,263.00
             195.00,263.00 257.00,236.15 257.00,236.15
             257.00,236.15 274.00,228.77 274.00,228.77
             274.00,228.77 279.84,225.30 279.84,225.30
             279.84,225.30 279.84,212.00 279.84,212.00
             279.84,212.00 275.00,174.00 275.00,174.00 Z
           M 261.79,184.00
           C 262.00,186.38 262.11,189.74 261.79,192.00
             260.30,197.58 256.06,201.51 257.10,212.00
             257.47,215.66 258.96,219.66 263.04,220.20
             264.54,220.66 266.50,220.23 268.00,220.20
             268.00,220.20 266.00,184.00 266.00,184.00
             266.00,184.00 261.79,184.00 261.79,184.00 Z
           M 194.00,254.00
           C 198.67,249.09 198.61,242.50 199.34,236.09
             200.39,226.79 202.96,214.83 198.43,206.04
             196.94,203.14 194.20,201.31 192.00,199.00
             192.00,199.00 201.00,198.00 201.00,198.00
             201.00,198.00 203.00,192.00 203.00,192.00
             200.22,192.63 192.65,194.49 190.98,196.70
             188.92,199.46 190.81,207.51 190.98,211.00
             190.98,211.00 193.09,243.00 193.09,243.00
             193.09,243.00 194.00,254.00 194.00,254.00 Z
           M 213.00,194.00
           C 210.61,200.96 207.84,202.08 206.00,214.00
             213.06,209.90 217.95,201.65 213.00,194.00 Z" />
</svg>
