<?xml version="1.0" encoding="UTF-8" standalone="no"?>
<!DOCTYPE svg PUBLIC "-//W3C//DTD SVG 20010904//EN"
              "http://www.w3.org/TR/2001/REC-SVG-20010904/DTD/svg10.dtd">

<svg xmlns="http://www.w3.org/2000/svg"
     width="17.9167in" height="6.94444in"
     viewBox="0 0 1290 500">
  <path id="Selection #2"
        fill="none" stroke="black" stroke-width="1"
        d="M 195.00,263.00
           C 195.00,263.00 257.00,236.15 257.00,236.15
             257.00,236.15 274.00,228.77 274.00,228.77
             274.00,228.77 279.97,225.30 279.97,225.30
             279.97,225.30 279.28,209.00 279.28,209.00
             279.28,209.00 275.00,167.00 275.00,167.00
             275.00,167.00 214.00,187.67 214.00,187.67
             214.00,187.67 198.00,193.33 198.00,193.33
             196.00,194.00 192.27,195.00 190.99,196.70
             188.97,199.40 190.93,209.21 190.99,213.00
             190.99,213.00 195.00,263.00 195.00,263.00 Z" />
</svg>
