<?xml version="1.0" encoding="UTF-8" standalone="no"?>
<!DOCTYPE svg PUBLIC "-//W3C//DTD SVG 20010904//EN"
              "http://www.w3.org/TR/2001/REC-SVG-20010904/DTD/svg10.dtd">

<svg xmlns="http://www.w3.org/2000/svg"
     width="17.9167in" height="6.94444in"
     viewBox="0 0 1290 500">
  <path id="Selection"
        fill="none" stroke="black" stroke-width="1"
        d="M 1203.00,177.00
           C 1203.00,177.00 1282.00,190.00 1282.00,190.00
             1284.47,180.68 1289.99,154.85 1290.00,146.00
             1290.00,146.00 1290.00,104.00 1290.00,104.00
             1290.00,104.00 1290.00,35.00 1290.00,35.00
             1290.00,35.00 1257.00,32.17 1257.00,32.17
             1257.00,32.17 1236.00,30.72 1236.00,30.72
             1236.00,30.72 1222.00,29.78 1222.00,29.78
             1219.91,29.30 1216.54,28.55 1214.74,29.78
             1212.47,31.81 1213.08,37.30 1212.96,40.00
             1212.96,40.00 1210.96,68.00 1210.96,68.00
             1210.96,68.00 1209.09,89.00 1209.09,89.00
             1209.09,89.00 1204.91,151.00 1204.91,151.00
             1204.91,151.00 1203.00,177.00 1203.00,177.00 Z" />
</svg>
