<?xml version="1.0" encoding="UTF-8" standalone="no"?>
<!DOCTYPE svg PUBLIC "-//W3C//DTD SVG 20010904//EN"
              "http://www.w3.org/TR/2001/REC-SVG-20010904/DTD/svg10.dtd">

<svg xmlns="http://www.w3.org/2000/svg"
     width="17.9167in" height="6.94444in"
     viewBox="0 0 1290 500">
  <path id="Selection"
        fill="none" stroke="black" stroke-width="1"
        d="M 255.00,6.00
           C 255.00,6.00 191.00,16.92 191.00,16.92
             191.00,16.92 175.00,19.58 175.00,19.58
             175.00,19.58 168.00,21.74 168.00,21.74
             168.00,21.74 168.00,37.00 168.00,37.00
             168.00,37.00 169.00,77.00 169.00,77.00
             169.00,77.00 170.00,94.00 170.00,94.00
             170.00,94.00 198.00,87.88 198.00,87.88
             198.00,87.88 240.00,78.13 240.00,78.13
             243.61,77.23 257.20,74.86 258.98,72.44
             260.06,70.98 259.96,68.72 259.83,67.00
             259.83,67.00 259.00,58.00 259.00,58.00
             259.00,58.00 257.96,41.00 257.96,41.00
             257.96,41.00 257.96,33.00 257.96,33.00
             257.96,33.00 257.00,21.00 257.00,21.00
             256.99,15.93 257.02,10.73 255.00,6.00 Z" />
</svg>
