<?xml version="1.0" encoding="UTF-8" standalone="no"?>
<!DOCTYPE svg PUBLIC "-//W3C//DTD SVG 20010904//EN"
              "http://www.w3.org/TR/2001/REC-SVG-20010904/DTD/svg10.dtd">

<svg xmlns="http://www.w3.org/2000/svg"
     width="17.9167in" height="6.94444in"
     viewBox="0 0 1290 500">
  <path id="Selection #17"
        fill="none" stroke="black" stroke-width="1"
        d="M 246.00,89.00
           C 246.00,89.00 246.00,99.00 246.00,99.00
             246.00,99.00 263.00,94.41 263.00,94.41
             264.84,94.18 267.81,93.24 269.57,94.41
             272.57,95.81 273.39,105.96 270.65,107.99
             268.63,109.49 256.12,110.75 253.00,111.00
             253.00,111.00 255.00,116.00 255.00,116.00
             258.11,115.22 269.16,112.66 271.69,114.11
             274.27,115.60 273.98,119.44 274.00,122.00
             274.03,125.94 274.86,137.80 272.40,140.44
             270.89,142.06 267.14,142.98 265.00,143.58
             265.00,143.58 248.00,148.00 248.00,148.00
             248.00,148.00 248.00,154.00 248.00,154.00
             254.59,153.45 266.09,150.08 273.00,148.37
             273.00,148.37 312.00,139.12 312.00,139.12
             315.41,138.31 328.24,135.79 329.98,133.44
             331.23,131.74 331.00,128.08 331.00,126.00
             331.00,126.00 331.00,122.00 331.00,122.00
             324.45,123.32 315.20,128.08 309.00,125.00
             309.00,125.00 306.00,131.00 306.00,131.00
             306.00,131.00 297.00,127.60 297.00,127.60
             297.00,127.60 279.00,134.00 279.00,134.00
             279.00,134.00 273.00,92.00 273.00,92.00
             273.00,92.00 299.00,87.00 299.00,87.00
             299.00,87.00 299.96,106.00 299.96,106.00
             299.96,106.00 301.02,114.62 301.02,114.62
             301.02,114.62 309.00,120.00 309.00,120.00
             309.00,120.00 304.00,85.00 304.00,85.00
             304.00,85.00 313.57,84.19 313.57,84.19
             313.57,84.19 316.27,91.00 316.27,91.00
             316.27,91.00 319.00,112.00 319.00,112.00
             319.00,112.00 330.96,110.00 330.96,110.00
             330.96,110.00 330.96,98.00 330.96,98.00
             330.96,98.00 330.00,86.00 330.00,86.00
             330.00,86.00 330.00,69.00 330.00,69.00
             330.00,69.00 303.00,75.13 303.00,75.13
             303.00,75.13 246.00,89.00 246.00,89.00 Z
           M 285.00,101.00
           C 285.00,101.00 287.00,116.00 287.00,116.00
             293.06,113.56 290.03,111.60 290.00,100.00
             290.00,100.00 285.00,101.00 285.00,101.00 Z
           M 247.00,136.00
           C 259.20,133.70 258.99,134.07 259.00,124.00
             246.80,126.45 247.01,125.99 247.00,136.00 Z" />
</svg>
