<?xml version="1.0" encoding="UTF-8" standalone="no"?>
<!DOCTYPE svg PUBLIC "-//W3C//DTD SVG 20010904//EN"
              "http://www.w3.org/TR/2001/REC-SVG-20010904/DTD/svg10.dtd">

<svg xmlns="http://www.w3.org/2000/svg"
     width="17.9167in" height="6.94444in"
     viewBox="0 0 1290 500">
  <path id="Selection #3"
        fill="none" stroke="black" stroke-width="1"
        d="M 336.00,226.00
           C 336.00,226.00 275.00,251.60 275.00,251.60
             275.00,251.60 258.00,258.72 258.00,258.72
             258.00,258.72 251.00,262.65 251.00,262.65
             251.00,262.65 251.00,276.00 251.00,276.00
             251.00,276.00 252.00,303.00 252.00,303.00
             252.00,303.00 253.00,316.00 253.00,316.00
             253.00,316.00 314.00,288.42 314.00,288.42
             314.00,288.42 332.00,280.31 332.00,280.31
             334.01,279.38 337.74,278.13 339.00,276.35
             340.80,273.84 339.01,262.89 339.00,259.00
             339.00,259.00 338.00,241.00 338.00,241.00
             337.99,235.74 338.26,230.90 336.00,226.00 Z" />
</svg>
