<?xml version="1.0" encoding="UTF-8" standalone="no"?>
<!DOCTYPE svg PUBLIC "-//W3C//DTD SVG 20010904//EN"
              "http://www.w3.org/TR/2001/REC-SVG-20010904/DTD/svg10.dtd">

<svg xmlns="http://www.w3.org/2000/svg"
     width="17.9167in" height="6.94444in"
     viewBox="0 0 1290 500">
  <path id="Selection #20"
        fill="none" stroke="black" stroke-width="1"
        d="M 336.00,226.00
           C 336.00,226.00 275.00,251.60 275.00,251.60
             275.00,251.60 258.00,258.72 258.00,258.72
             258.00,258.72 251.00,262.65 251.00,262.65
             251.00,262.65 251.00,276.00 251.00,276.00
             251.00,276.00 252.00,303.00 252.00,303.00
             252.00,303.00 253.00,316.00 253.00,316.00
             253.00,316.00 314.00,288.42 314.00,288.42
             314.00,288.42 332.00,280.31 332.00,280.31
             334.01,279.38 337.74,278.13 339.00,276.35
             340.80,273.84 339.01,262.89 339.00,259.00
             339.00,259.00 338.00,241.00 338.00,241.00
             337.99,235.74 338.26,230.90 336.00,226.00 Z
           M 315.00,257.00
           C 313.33,254.46 311.79,251.11 308.89,249.86
             304.30,247.87 294.86,253.34 292.68,257.33
             290.86,260.44 293.14,261.92 292.68,265.28
             292.68,265.28 289.00,280.00 289.00,280.00
             285.61,270.73 291.46,262.11 285.54,258.19
             281.74,255.67 279.54,260.36 278.00,263.00
             278.00,263.00 269.47,281.91 269.47,281.91
             267.92,284.97 264.90,287.09 268.00,290.00
             266.12,295.49 265.58,298.54 272.00,300.00
             274.53,293.32 273.51,291.89 280.00,288.00
             281.42,293.31 282.48,294.22 288.00,294.00
             288.00,294.00 288.00,289.00 288.00,289.00
             289.65,289.97 291.45,291.52 293.44,290.18
             295.64,288.69 295.55,283.84 297.16,281.22
             299.62,277.21 304.74,277.63 310.00,267.00
             311.24,273.20 307.04,280.50 312.18,282.84
             316.00,284.57 316.91,278.36 317.53,276.01
             317.53,276.01 324.66,248.89 324.66,248.89
             324.52,244.23 320.98,241.66 318.43,245.30
             316.63,247.87 315.32,253.85 315.00,257.00 Z
           M 306.00,257.00
           C 305.20,261.91 304.50,264.45 300.00,267.00
             302.13,261.71 301.08,260.35 306.00,257.00 Z
           M 301.00,268.00
           C 301.00,268.00 301.00,269.00 301.00,269.00
             301.00,269.00 300.00,268.00 300.00,268.00
             300.00,268.00 301.00,268.00 301.00,268.00 Z
           M 280.00,277.00
           C 280.00,277.00 280.00,278.00 280.00,278.00
             280.00,278.00 279.00,277.00 279.00,277.00
             279.00,277.00 280.00,277.00 280.00,277.00 Z
           M 288.00,285.00
           C 288.00,285.00 288.00,286.00 288.00,286.00
             288.00,286.00 287.00,285.00 287.00,285.00
             287.00,285.00 288.00,285.00 288.00,285.00 Z
           M 289.00,286.00
           C 289.00,286.00 289.00,287.00 289.00,287.00
             289.00,287.00 288.00,286.00 288.00,286.00
             288.00,286.00 289.00,286.00 289.00,286.00 Z
           M 288.00,288.00
           C 288.00,288.00 288.00,289.00 288.00,289.00
             288.00,289.00 287.00,288.00 287.00,288.00
             287.00,288.00 288.00,288.00 288.00,288.00 Z" />
</svg>
