<?xml version="1.0" encoding="UTF-8" standalone="no"?>
<!DOCTYPE svg PUBLIC "-//W3C//DTD SVG 20010904//EN"
              "http://www.w3.org/TR/2001/REC-SVG-20010904/DTD/svg10.dtd">

<svg xmlns="http://www.w3.org/2000/svg"
     width="17.9167in" height="6.94444in"
     viewBox="0 0 1290 500">
  <path id="Selection #1"
        fill="none" stroke="black" stroke-width="1"
        d="M 373.00,26.00
           C 377.86,32.64 376.00,43.96 376.00,52.00
             376.00,52.00 381.02,52.00 381.02,52.00
             381.02,52.00 381.02,34.00 381.02,34.00
             381.15,32.28 381.42,29.11 383.32,28.34
             385.45,27.47 386.55,30.45 386.67,32.02
             386.91,35.35 385.24,36.96 383.00,39.00
             384.64,43.31 390.22,55.70 394.18,57.80
             396.27,58.59 398.78,58.18 401.00,57.80
             401.00,57.80 387.98,38.00 387.98,38.00
             393.75,34.92 394.06,29.57 387.98,26.65
             383.03,24.29 378.14,25.76 373.00,26.00 Z
           M 417.00,25.00
           C 422.92,28.35 422.62,27.71 426.00,34.00
             422.42,34.09 419.14,34.05 416.74,37.23
             414.30,40.45 413.31,50.77 421.02,51.85
             434.74,53.78 431.61,32.99 428.01,28.23
             425.19,24.50 421.17,25.01 417.00,25.00 Z
           M 368.00,28.00
           C 365.79,34.31 366.16,35.78 373.00,36.00
             373.00,36.00 372.00,32.00 372.00,32.00
             372.00,32.00 368.00,32.00 368.00,32.00
             368.00,32.00 370.00,28.00 370.00,28.00
             370.00,28.00 368.00,28.00 368.00,28.00 Z
           M 410.00,52.00
           C 407.87,50.50 403.60,48.35 404.45,45.17
             405.30,41.98 413.58,39.36 410.29,35.80
             408.19,33.17 403.45,34.43 401.21,35.80
             396.07,39.64 395.67,48.86 402.05,51.40
             403.96,52.16 407.85,52.00 410.00,52.00 Z
           M 434.00,35.00
           C 438.09,44.67 433.18,53.37 442.00,51.50
             443.40,51.20 444.69,50.55 446.00,50.00
             446.00,50.00 452.00,52.00 452.00,52.00
             449.14,40.25 454.56,32.77 444.00,35.00
             447.15,40.65 447.31,46.75 441.00,50.00
             441.00,37.23 442.44,33.22 434.00,35.00 Z
           M 454.00,35.00
           C 454.00,35.00 458.63,44.00 458.63,44.00
             458.63,44.00 456.00,53.00 456.00,53.00
             456.00,53.00 460.00,46.00 460.00,46.00
             460.00,46.00 462.00,46.00 462.00,46.00
             464.23,51.56 465.98,53.11 472.00,52.00
             464.65,42.88 466.37,42.21 470.00,34.00
             470.00,34.00 463.00,40.00 463.00,40.00
             461.10,34.62 459.51,33.85 454.00,35.00 Z
           M 407.00,36.00
           C 407.00,36.00 408.00,40.00 408.00,40.00
             408.00,40.00 403.00,43.00 403.00,43.00
             403.15,38.83 402.79,37.48 407.00,36.00 Z
           M 421.00,51.00
           C 421.00,51.00 420.10,45.00 420.10,45.00
             420.10,45.00 420.10,41.02 420.10,41.02
             420.37,38.65 422.38,34.32 424.91,37.61
             426.51,39.53 426.33,47.50 424.91,49.43
             423.73,50.82 422.54,50.73 421.00,51.00 Z" />
</svg>
