<?xml version="1.0" encoding="UTF-8" standalone="no"?>
<!DOCTYPE svg PUBLIC "-//W3C//DTD SVG 20010904//EN"
              "http://www.w3.org/TR/2001/REC-SVG-20010904/DTD/svg10.dtd">

<svg xmlns="http://www.w3.org/2000/svg"
     width="17.9167in" height="6.94444in"
     viewBox="0 0 1290 500">
  <path id="Selection #1"
        fill="none" stroke="black" stroke-width="1"
        d="M 1084.00,227.00
           C 1085.61,228.18 1089.41,230.14 1090.28,231.41
             1091.91,233.82 1089.74,239.30 1089.00,242.00
             1094.59,239.84 1095.69,233.55 1091.57,229.43
             1089.35,227.21 1086.91,227.17 1084.00,227.00 Z
           M 1082.00,228.00
           C 1078.00,232.31 1077.42,234.27 1079.00,240.00
             1081.11,236.55 1083.09,232.02 1082.00,228.00 Z
           M 1085.00,230.00
           C 1084.39,234.61 1085.80,234.88 1090.00,234.00
             1090.00,234.00 1090.00,232.00 1090.00,232.00
             1090.00,232.00 1085.00,230.00 1085.00,230.00 Z
           M 1102.00,233.00
           C 1102.00,233.00 1110.00,236.00 1110.00,236.00
             1106.92,233.16 1106.10,233.24 1102.00,233.00 Z
           M 1097.00,245.00
           C 1097.00,245.00 1101.00,234.00 1101.00,234.00
             1095.83,236.76 1095.53,239.64 1097.00,245.00 Z
           M 1083.00,236.00
           C 1083.00,236.00 1080.00,242.00 1080.00,242.00
             1080.00,242.00 1088.00,244.00 1088.00,244.00
             1087.61,239.10 1088.03,237.85 1083.00,236.00 Z
           M 1103.00,236.00
           C 1103.00,236.00 1102.00,237.00 1102.00,237.00
             1102.00,237.00 1102.00,239.00 1102.00,239.00
             1102.00,239.00 1108.00,243.00 1108.00,243.00
             1108.00,243.00 1101.00,241.00 1101.00,241.00
             1101.00,241.00 1100.00,245.00 1100.00,245.00
             1100.00,245.00 1108.00,249.00 1108.00,249.00
             1111.66,244.35 1112.60,242.84 1111.00,237.00
             1111.00,237.00 1103.00,236.00 1103.00,236.00 Z
           M 1122.00,238.82
           C 1110.30,240.86 1112.85,254.79 1122.00,254.79
             1131.40,254.79 1133.44,240.50 1122.00,238.82 Z
           M 1128.00,246.00
           C 1128.00,246.00 1120.00,242.00 1120.00,242.00
             1121.46,243.98 1125.30,247.86 1125.55,249.98
             1126.01,253.73 1121.59,254.02 1119.15,252.67
             1116.41,251.16 1116.67,249.63 1117.00,247.00
             1117.00,247.00 1124.00,252.00 1124.00,252.00
             1121.78,247.47 1118.66,245.73 1118.74,243.09
             1118.85,239.61 1125.56,238.18 1128.00,246.00 Z
           M 1138.00,244.00
           C 1138.00,244.00 1146.00,247.00 1146.00,247.00
             1142.92,244.16 1142.10,244.24 1138.00,244.00 Z
           M 1135.00,245.00
           C 1132.94,248.46 1131.03,251.78 1132.85,255.90
             1135.41,261.67 1143.40,262.18 1146.69,256.79
             1148.12,254.44 1147.97,251.64 1148.00,249.00
             1148.00,249.00 1142.00,249.00 1142.00,249.00
             1142.00,249.00 1138.00,259.00 1138.00,259.00
             1138.00,259.00 1140.00,247.00 1140.00,247.00
             1140.00,247.00 1135.00,245.00 1135.00,245.00 Z
           M 1099.00,247.00
           C 1099.00,247.00 1105.00,249.00 1105.00,249.00
             1105.00,249.00 1099.00,247.00 1099.00,247.00 Z
           M 1155.02,250.74
           C 1144.89,256.44 1152.08,268.75 1160.98,265.26
             1169.09,262.09 1167.17,248.09 1155.02,250.74 Z
           M 1163.00,253.00
           C 1163.00,253.00 1160.00,254.00 1160.00,254.00
             1160.00,254.00 1162.00,258.00 1162.00,258.00
             1162.00,258.00 1159.00,257.00 1159.00,257.00
             1158.15,260.53 1158.10,261.91 1155.00,264.00
             1155.00,264.00 1155.00,255.00 1155.00,255.00
             1158.55,252.92 1158.87,252.40 1163.00,253.00 Z
           M 1176.00,255.82
           C 1163.82,257.93 1167.18,271.95 1176.00,271.71
             1185.33,271.45 1187.41,257.49 1176.00,255.82 Z
           M 1175.00,258.00
           C 1175.00,258.00 1174.00,267.00 1174.00,267.00
             1174.00,267.00 1177.00,267.00 1177.00,267.00
             1177.00,267.00 1181.00,260.00 1181.00,260.00
             1181.00,260.00 1179.00,269.00 1179.00,269.00
             1170.24,268.48 1170.93,265.25 1173.00,258.00
             1173.00,258.00 1175.00,258.00 1175.00,258.00 Z
           M 1192.02,261.67
           C 1189.15,262.92 1187.33,263.73 1186.43,267.04
             1184.89,272.73 1189.84,279.28 1195.98,277.22
             1204.55,274.35 1203.80,260.01 1192.02,261.67 Z
           M 1197.00,263.00
           C 1197.00,263.00 1192.00,276.00 1192.00,276.00
             1191.35,270.98 1193.01,267.54 1195.00,263.00
             1195.00,263.00 1197.00,263.00 1197.00,263.00 Z" />
</svg>
