<?xml version="1.0" encoding="UTF-8" standalone="no"?>
<!DOCTYPE svg PUBLIC "-//W3C//DTD SVG 20010904//EN"
              "http://www.w3.org/TR/2001/REC-SVG-20010904/DTD/svg10.dtd">

<svg xmlns="http://www.w3.org/2000/svg"
     width="17.9167in" height="6.94444in"
     viewBox="0 0 1290 500">
  <path id="Selection #1"
        fill="none" stroke="black" stroke-width="1"
        d="M 575.00,182.00
           C 575.00,182.00 575.00,185.00 575.00,185.00
             575.00,185.00 570.00,183.00 570.00,183.00
             570.55,191.17 580.81,184.42 574.69,180.42
             573.78,179.82 572.05,179.35 571.00,179.00
             571.00,179.00 571.00,177.00 571.00,177.00
             571.00,177.00 577.00,178.00 577.00,178.00
             576.52,176.81 576.45,175.88 575.28,175.00
             570.89,171.66 566.84,179.09 571.43,181.43
             572.53,181.99 573.82,181.91 575.00,182.00 Z
           M 586.00,191.00
           C 586.00,191.00 586.60,180.74 586.60,180.74
             586.65,178.00 585.06,173.15 581.35,174.62
             577.18,176.28 576.05,185.22 586.00,191.00 Z
           M 589.00,174.00
           C 589.00,174.00 589.00,187.00 589.00,187.00
             589.00,187.00 596.00,187.00 596.00,187.00
             596.00,187.00 596.00,185.00 596.00,185.00
             596.00,185.00 591.00,185.00 591.00,185.00
             591.00,185.00 591.00,174.00 591.00,174.00
             591.00,174.00 589.00,174.00 589.00,174.00 Z
           M 583.00,176.00
           C 583.00,176.00 583.00,185.00 583.00,185.00
             580.46,181.52 580.70,179.56 583.00,176.00 Z" />
</svg>
